<?xml version="1.0" encoding="utf-8"?>
<!-- Generator: Adobe Illustrator 17.0.0, SVG Export Plug-In . SVG Version: 6.00 Build 0)  -->
<!DOCTYPE svg PUBLIC "-//W3C//DTD SVG 1.1//EN" "http://www.w3.org/Graphics/SVG/1.1/DTD/svg11.dtd">
<svg version="1.1" id="Calque_1" xmlns="http://www.w3.org/2000/svg" xmlns:xlink="http://www.w3.org/1999/xlink" x="0px" y="0px"
	 width="512px" height="411px" viewBox="0 0 512 411" style="enable-background:new 0 0 512 411;" xml:space="preserve">
<g>
	<g>
		<path style="fill:#FFFFFF;" d="M29.85,41.46l28.88,58.15c0,0,44.92-33.29,85.43,0c14.04-22.46,31.28-58.15,31.28-58.15
			l-22.06-11.63l-20.45,38.9c0,0-18.05-6.42-17.65-4.01c0.4,2.41,0-45.32,0-45.32H90.01v42.11c0,0-22.06,5.61-20.05,9.22
			c2.01,3.61-18.85-41.71-18.85-41.71L29.85,41.46z"/>
		<path style="fill:#FFFFFF;" d="M102.64,95.61c-34.17,0-61.88,27.7-61.88,61.88c0,34.17,27.7,61.88,61.88,61.88
			s61.88-27.7,61.88-61.88C164.52,123.31,136.81,95.61,102.64,95.61z M102.64,205.01c-26.25,0-47.53-21.28-47.53-47.53
			c0-26.25,21.28-47.53,47.53-47.53s47.53,21.28,47.53,47.53C150.16,183.73,128.89,205.01,102.64,205.01z"/>
		<polyline style="fill:#FFFFFF;" points="91.21,216.15 91.21,395.6 113.67,395.6 113.67,363.91 122.89,363.91 122.89,376.35 
			145.35,376.35 145.35,329.82 124.5,329.82 124.5,341.05 114.47,341.05 114.47,215.11 		"/>
	</g>
	<text transform="matrix(1 0 0 1 30.4386 376.0243)" style="fill:#F4C573; font-family:'Modern-Regular'; font-size:67.6021;">B</text>
	
		<text transform="matrix(1.1253 0 0 1 157.2608 376.0243)" style="fill:#F4C573; font-family:'Modern-Regular'; font-size:69.1574;">U</text>
	<text transform="matrix(1 0 0 1 225.5885 376.0624)" style="fill:#F4C573; font-family:'Modern-Regular'; font-size:66.9987;">E</text>
	<text transform="matrix(1.063 0 0 1 320.3707 376.0624)" style="fill:#F4C573; font-family:'Modern-Regular'; font-size:68.1205;">K</text>
	
		<text transform="matrix(1.0288 0 0 1 387.0816 376.1835)" style="fill:#F4C573; font-family:'Modern-Regular'; font-size:68.1205;">E</text>
	
		<text transform="matrix(0.9528 0 0 1 448.9264 377.1952)" style="fill:#F4C573; font-family:'Modern-Regular'; font-size:69.6758;">Y</text>
</g>
</svg>
