<?xml version="1.0" encoding="utf-8"?>
<!-- Generator: Adobe Illustrator 17.0.0, SVG Export Plug-In . SVG Version: 6.00 Build 0)  -->
<!DOCTYPE svg PUBLIC "-//W3C//DTD SVG 1.1//EN" "http://www.w3.org/Graphics/SVG/1.1/DTD/svg11.dtd">
<svg version="1.1" id="Calque_1" xmlns="http://www.w3.org/2000/svg" xmlns:xlink="http://www.w3.org/1999/xlink" x="0px" y="0px"
	 width="960px" height="960px" viewBox="0 0 960 960" style="enable-background:new 0 0 960 960;" xml:space="preserve">
<g>
	<g>
		<path style="fill:#C4496F;" d="M405.29,886.64c0,3.67,1.6,7.18,4.5,10.49c10.27,7.6,45.91,28.92,123.89,30.63
			c0.61,0,1.22,0.01,1.83,0.01c23.06,0,47.1-2.37,68.15-6.61c17.51-4.16,30.75-9.65,40.31-14.76l6.29-38.77
			c-22.31-12.81-65.4-21.1-106.82-22.06c-2.63,0.15-5.28,0.26-7.94,0.26c-2.66,0-5.31-0.11-7.94-0.26
			C468.18,846.98,405.29,863.44,405.29,886.64z"/>
		<path style="fill:#C4496F;" d="M637.42,711.52c0-56.19-45.72-101.91-101.91-101.91s-101.91,45.72-101.91,101.91
			s45.72,101.91,101.91,101.91S637.42,767.71,637.42,711.52z M463.01,714.2c-1.48-1.81-1.22-4.48,0.59-5.96l73.83-60.58
			c1.81-1.48,4.48-1.22,5.96,0.59s1.22,4.48-0.59,5.96l-73.83,60.58c-0.79,0.65-1.74,0.97-2.69,0.97
			C465.07,715.75,463.84,715.22,463.01,714.2z M468.51,754.82c-1.18,0-2.36-0.49-3.19-1.45c-1.53-1.77-1.35-4.44,0.41-5.97
			l114.42-99.66c1.77-1.53,4.44-1.35,5.98,0.41c1.53,1.77,1.35,4.44-0.41,5.97L471.3,753.79
			C470.49,754.48,469.48,754.82,468.51,754.82z M498.03,773.28c-1.19,0-2.37-0.49-3.2-1.46c-1.53-1.77-1.34-4.44,0.42-5.97
			l55.36-47.98c1.77-1.53,4.44-1.34,5.97,0.42c1.53,1.77,1.34,4.44-0.42,5.97l-55.36,47.98C500,772.95,499.01,773.28,498.03,773.28z
			"/>
		<path style="fill:#C4496F;" d="M543.33,837.12c65.79-4.05,118.06-58.83,118.06-125.61c0-69.41-56.47-125.87-125.88-125.87
			s-125.87,56.47-125.87,125.87c0,66.79,52.28,121.56,118.06,125.61c2.6-0.06,5.22-0.09,7.82-0.09S540.72,837.07,543.33,837.12z
			 M425.14,711.52c0-60.86,49.51-110.37,110.37-110.37s110.37,49.51,110.37,110.37s-49.51,110.37-110.37,110.37
			C474.65,821.89,425.14,772.37,425.14,711.52z"/>
		<path style="fill:#C4496F;" d="M373.81,712.76l-11.74-189.01c-6.1,7.84-16.78,18.01-29.81,27.85
			c-14.19,10.73-27.77,18.51-36.74,21.56l-3.65,2.87l8.76,141.16c10.14-1.97,22.74-3.49,36.06-4.31
			C350.36,712.04,363.36,712,373.81,712.76z"/>
		<path style="fill:#C4496F;" d="M289.93,804.21c2.21,0.32,5.21,0.65,9.04,0.9l80.39-4.99c7.14-1.12,11.98-2.14,14.99-2.87
			l-4.13-66.56c-2.93,1.19-6.72,2.3-11.52,3.37c-10.75,2.41-25.1,4.26-40.37,5.21c-15.27,0.95-29.74,0.88-40.7-0.18
			c-4.89-0.47-8.8-1.1-11.85-1.92L289.93,804.21z"/>
		<path style="fill:#C4496F;" d="M222.65,782.2c-1.73,0.78-3.52,1.55-5.35,2.32c-1.83,0.77-3.64,1.5-5.43,2.19
			c-14.12,5.51-22.34,7.28-27.19,7.38l23.51,61.05c25.65,20.48,53.6,38.18,83.43,52.64l-1.75-28.32l-42.9-111.49
			C242.74,772.09,234.63,776.85,222.65,782.2z"/>
		<path style="fill:#C4496F;" d="M757.14,687.36l-68.84-11.15c-0.28,0.68-0.51,1.39-0.62,2.14l-11.82,72.96l69.38,11.25l11.82-72.96
			C757.18,688.84,757.19,688.09,757.14,687.36z"/>
		<path style="fill:#C4496F;" d="M407.44,921.81l1.47,23.71c8,1.38,16.08,2.54,24.21,3.49C420.36,940.3,412.4,930.5,407.44,921.81z"
			/>
	</g>
	<path style="fill:#C4496F;" d="M592.37,332.64c0-4.45-1.28-7.91-3.85-10.41c-2.57-2.48-6.45-3.73-11.67-3.73h-15.16v28.26h15.16
		c5.22,0,9.1-1.25,11.67-3.73C591.08,340.57,592.37,337.1,592.37,332.64z"/>
	<path style="fill:#C4496F;" d="M485.05,63.92c-245.25,0-444.06,198.82-444.06,444.06c0,136.47,61.58,258.53,158.43,339.99
		l-23.07-59.93h0.01c-0.05-0.08-0.13-0.15-0.16-0.24c-1.25-3.18,12.01-8.26,29.75-16.21l-64.81-161.48
		c-7.36,0.71-11.42-5.94-15.05-14.07c-6.27-14.05-6.35-28.99-1.39-31.16c6.36-2.79,16.13,4.17,21.68,13.58
		c4.36,7.4,7.82,19.43,4.83,25.85l65.39,162.85l0.38,0.95c17.84-6.98,31.3-10.58,32.9-7.62l0.01,0.04l0.14-0.06l38.65,100.43
		l-2.03-32.56c-0.33-0.06-0.53-0.09-0.53-0.09c-2.59,0.16-4.85-1.8-5.01-4.37l-0.98-15.71c-0.08-1.4,0.48-2.67,1.41-3.59
		l-4.64-74.72c-0.29-4.66,4.25-7.88,15.43-10.78l-8.99-144.68c-0.08-1.3,0.46-2.52,1.42-3.38c0.59-6.98,15.15-22.96,35.3-38.19
		c17.47-13.2,33.96-21.93,42.15-22.86l0.74-0.59c1.22-0.97,2.87-1.17,4.3-0.53c1.42,0.64,2.37,2,2.46,3.56l12.51,201.22
		c10.88,1.51,15.56,4.13,15.84,8.69l4.73,76.17c0.35,0.6,0.58,1.27,0.62,2.01l0.98,15.71c0.13,2.16-1.26,4.05-3.24,4.71l3.05,49.17
		c14.79-15.66,50.06-26.36,89.89-30.77c-53.89-17.49-92.97-68.15-92.97-127.79c0-74.08,60.26-134.35,134.35-134.35
		c74.08,0,134.35,60.26,134.35,134.35c0,59.64-39.08,110.3-92.97,127.79c29.63,3.29,56.74,10.03,74.77,19.73l13.85-85.44
		c-0.42-2.05-0.51-4.19-0.15-6.37l14.62-90.14c0.13-0.79,0.32-1.54,0.54-2.27c-7.03-2-5.18-7.51-6.27-16.21l-24.35-120.2
		c-1.32-10.6,5.36-20.55,15.66-23.34c20.74-5.61,56.26-12.71,88.87-7.13c32.33,5.52,60.45,23.84,76.29,36.07
		c8.14,6.29,10.59,17.51,5.9,26.66l-63.05,103.46c-3.27,6.38-4.15,11.92-8.59,13.45c0.02,1.07-0.04,2.16-0.21,3.25l-14.62,90.14
		c-0.35,2.18-1.11,4.19-2.17,5.99l-14.44,89.08c117.99-79.82,195.57-214.88,195.57-368.08C929.11,262.72,730.31,63.92,485.05,63.92z
		 M325.67,384.91c-5.22,4.89-12.19,7.34-20.94,7.34c-8.74,0-15.84-2.05-21.29-6.14c-5.45-4.09-8.17-9.74-8.17-16.96h14.67
		c0.32,3.69,1.68,6.62,4.09,8.79c2.4,2.17,5.94,3.25,10.59,3.25c4.65,0,8.33-1.2,11.01-3.6c2.69-2.4,4.03-5.25,4.03-8.54
		s-0.82-5.85-2.46-7.7c-1.65-1.85-3.77-3.23-6.37-4.15c-2.6-0.92-5.48-1.74-8.6-2.46c-3.13-0.72-6.28-1.57-9.45-2.52
		c-3.17-0.97-6.05-2.2-8.66-3.73c-2.6-1.52-4.73-3.75-6.37-6.68c-1.65-2.92-2.46-6.51-2.46-10.76c0-7.3,2.63-13.18,7.88-17.62
		c5.25-4.45,12.07-6.68,20.46-6.68c8.37,0,15.07,1.92,20.09,5.77c5.02,3.85,7.8,9.42,8.36,16.72h-15.19
		c-0.32-3.2-1.68-5.89-4.09-8.06c-2.4-2.17-5.65-3.25-9.74-3.25c-4.09,0-7.42,1.05-9.99,3.13c-2.57,2.08-3.85,5.11-3.85,9.08
		s1.52,7,4.57,9.08s6.74,3.6,11.07,4.57c4.33,0.97,8.66,2.06,12.99,3.31s8.02,3.54,11.07,6.91c3.05,3.37,4.57,8.14,4.57,14.32
		C333.49,374.49,330.87,380.02,325.67,384.91z M415.76,318.51H393.5v72.9h-13.72v-72.9H357.4v-10.71h58.34v10.71H415.76z
		 M510.14,380.16c-8.22,8.06-18.32,12.09-30.31,12.09c-11.99,0-22.12-4.03-30.37-12.09c-8.26-8.06-12.39-18.29-12.39-30.68
		c0-12.39,4.13-22.61,12.39-30.68c8.26-8.06,18.38-12.09,30.37-12.09c11.99,0,22.09,4.03,30.31,12.09
		c8.22,8.06,12.33,18.29,12.33,30.68C522.47,361.87,518.36,372.1,510.14,380.16z M591.03,391.41l-20.93-33.92h-8.42v33.92h-13.72
		v-83.6h28.88c9.46,0,16.76,2.34,21.89,7.04c5.13,4.69,7.7,10.65,7.7,17.87c0,5.62-1.71,10.67-5.11,15.16
		c-3.42,4.49-8.64,7.42-15.7,8.79l22.14,34.77h-16.73V391.41z M682.22,318.39h-32.48v25.38h28.87v10.59h-28.87v26.34h32.48v10.71
		h-46.19v-83.72h46.19L682.22,318.39L682.22,318.39z"/>
	<path style="fill:#C4496F;" d="M479.77,319.23c-8.42,0-15.3,2.77-20.63,8.3c-5.33,5.54-8,12.85-8,21.95c0,9.1,2.66,16.44,8,22.01
		s12.21,8.36,20.63,8.36c8.42,0,15.3-2.79,20.63-8.36c5.33-5.57,8-12.91,8-22.01c0-9.1-2.67-16.42-8-21.95
		C495.05,322,488.19,319.23,479.77,319.23z"/>
</g>
</svg>
