<?xml version="1.0" encoding="utf-8"?>
<!-- Generator: Adobe Illustrator 17.0.0, SVG Export Plug-In . SVG Version: 6.00 Build 0)  -->
<!DOCTYPE svg PUBLIC "-//W3C//DTD SVG 1.1//EN" "http://www.w3.org/Graphics/SVG/1.1/DTD/svg11.dtd">
<svg version="1.1" xmlns="http://www.w3.org/2000/svg" xmlns:xlink="http://www.w3.org/1999/xlink" x="0px" y="0px" width="500px"
	 height="500px" viewBox="0 0 500 500" style="enable-background:new 0 0 500 500;" xml:space="preserve">
<g id="BACKGROUND">
	<rect x="-0.64" y="-0.28" style="fill:#25003D;" width="500.67" height="500.27"/>
</g>
<g id="OBJECTS">
	
		<text transform="matrix(1 0 0 1 86.293 433.3518)" style="fill:#FFFFFF; font-family:'SourceSerifRoman-Light'; font-size:58.2855; letter-spacing:23;">perfume</text>
	<g>
		<path style="fill:none;stroke:#FFFFFF;stroke-width:3;stroke-linecap:round;stroke-linejoin:round;stroke-miterlimit:10;" d="
			M83.01,342.6c-3.18-8.64-18.24-6.55-24.16,1.32c-5.92,7.87-3.05,23.55,8.78,26.47c11.84,2.92,25.33-0.5,34.63-6.48
			c9.3-5.98,15.17-14.16,20.42-22.27c5.25-8.11,10.18-16.48,18.16-23.36c15.4-13.29,42.01-19.4,65.39-15
			c23.38,4.4,42.3,19.07,46.5,36.05"/>
		<path style="fill:none;stroke:#FFFFFF;stroke-width:3;stroke-linecap:round;stroke-linejoin:round;stroke-miterlimit:10;" d="
			M425.44,342.57c3.18-8.64,18.24-6.55,24.16,1.32c5.92,7.87,0.53,23.58-11.31,26.5s-25.33-0.5-34.63-6.48
			c-9.3-5.98-15.17-14.16-20.42-22.27c-5.25-8.11-10.18-16.48-18.16-23.36c-15.4-13.29-42.01-19.4-65.39-15
			c-23.38,4.4-42.3,19.07-46.5,36.05"/>
	</g>
	<g>
		<path style="fill:none;stroke:#FFFFFF;stroke-width:3;stroke-linecap:round;stroke-linejoin:round;stroke-miterlimit:10;" d="
			M152.1,335.98c-1.89,5.15-10.87,3.9-14.39-0.79c-3.53-4.69-1.82-14.03,5.23-15.77c7.05-1.74,15.09,0.3,20.63,3.86
			c5.54,3.56,9.04,8.43,12.17,13.27c3.13,4.83,6.07,9.82,10.82,13.92c9.18,7.92,25.03,11.56,38.96,8.93
			c13.93-2.62,25.2-11.36,27.7-21.48"/>
		<path style="fill:none;stroke:#FFFFFF;stroke-width:3;stroke-linecap:round;stroke-linejoin:round;stroke-miterlimit:10;" d="
			M356.11,336c1.89,5.15,10.87,3.9,14.39-0.79c3.53-4.69,0.31-14.05-6.74-15.79c-7.05-1.74-15.09,0.3-20.63,3.86
			c-5.54,3.56-9.04,8.43-12.17,13.27c-3.13,4.83-6.07,9.82-10.82,13.92c-9.18,7.92-25.03,11.56-38.96,8.93
			c-13.93-2.62-25.2-11.36-27.7-21.48"/>
	</g>
	<g>
		<circle style="fill:#FFFFFF;" cx="348.06" cy="266.8" r="7.09"/>
		<circle style="fill:#FFFFFF;" cx="366.65" cy="258.96" r="4.28"/>
		<circle style="fill:#FFFFFF;" cx="380.03" cy="252.55" r="2.14"/>
	</g>
	<g>
		<circle style="fill:#FFFFFF;" cx="155.7" cy="266.8" r="7.09"/>
		<circle style="fill:#FFFFFF;" cx="137.1" cy="258.96" r="4.28"/>
		<circle style="fill:#FFFFFF;" cx="123.73" cy="252.55" r="2.14"/>
	</g>
	<g>
		<path style="fill:none;stroke:#FFFFFF;stroke-width:3;stroke-linecap:round;stroke-linejoin:round;stroke-miterlimit:10;" d="
			M203.37,258.93h98.75c22.25-15.59,36.81-41.4,36.81-70.63c0-47.6-38.59-86.19-86.19-86.19s-86.19,38.59-86.19,86.19
			C166.55,217.53,181.12,243.35,203.37,258.93z"/>
		
			<polyline style="fill:none;stroke:#FFFFFF;stroke-width:3;stroke-linecap:round;stroke-linejoin:round;stroke-miterlimit:10;" points="
			226.32,106.44 226.32,62.88 279.64,62.88 279.64,106.44 		"/>
		
			<rect x="241.19" y="32.84" style="fill:none;stroke:#FFFFFF;stroke-width:3;stroke-linecap:round;stroke-linejoin:round;stroke-miterlimit:10;" width="23.12" height="30.04"/>
		
			<ellipse style="fill:none;stroke:#FFFFFF;stroke-width:3;stroke-linecap:round;stroke-linejoin:round;stroke-miterlimit:10;" cx="185.11" cy="40.9" rx="18.56" ry="12.58"/>
		
			<line style="fill:none;stroke:#FFFFFF;stroke-width:3;stroke-linecap:round;stroke-linejoin:round;stroke-miterlimit:10;" x1="203.67" y1="40.9" x2="241.19" y2="40.9"/>
		<path style="fill:none;stroke:#FFFFFF;stroke-width:3;stroke-linecap:round;stroke-linejoin:round;stroke-miterlimit:10;" d="
			M266.95,103.37c0,0,55.54,61.75,22.34,155.56"/>
		<path style="fill:none;stroke:#FFFFFF;stroke-width:3;stroke-linecap:round;stroke-linejoin:round;stroke-miterlimit:10;" d="
			M239.48,103.37c0,0-55.54,61.75-22.34,155.56"/>
	</g>
</g>
</svg>
