<?xml version="1.0" encoding="utf-8"?>
<!-- Generator: Adobe Illustrator 17.0.0, SVG Export Plug-In . SVG Version: 6.00 Build 0)  -->
<!DOCTYPE svg PUBLIC "-//W3C//DTD SVG 1.1//EN" "http://www.w3.org/Graphics/SVG/1.1/DTD/svg11.dtd">
<svg version="1.1" id="Calque_1" xmlns="http://www.w3.org/2000/svg" xmlns:xlink="http://www.w3.org/1999/xlink" x="0px" y="0px"
	 width="960px" height="960px" viewBox="0 0 960 960" style="enable-background:new 0 0 960 960;" xml:space="preserve">
<g>
	<g>
		<linearGradient id="SVGID_1_" gradientUnits="userSpaceOnUse" x1="113.9367" y1="477.4775" x2="415.4169" y2="316.6176">
			<stop  offset="0.0245" style="stop-color:#FFFFFF"/>
			<stop  offset="0.9807" style="stop-color:#FFFFFF;stop-opacity:0"/>
		</linearGradient>
		<path style="opacity:0.5;fill:url(#SVGID_1_);" d="M466.04,181.8L135.37,372.74c-6.12,3.53-11.06,12.08-11.04,19.11l0.5,175.35
			c0.02,7.03,4.99,9.86,11.11,6.33l330.11-190.61V181.8z"/>
		<g>
			<linearGradient id="SVGID_2_" gradientUnits="userSpaceOnUse" x1="27.6761" y1="504.4901" x2="422.4389" y2="368.57">
				<stop  offset="0" style="stop-color:#3EB2FA"/>
				<stop  offset="0.1616" style="stop-color:#3EAEF7"/>
				<stop  offset="0.3142" style="stop-color:#3EA2F0"/>
				<stop  offset="0.4634" style="stop-color:#3D8FE5"/>
				<stop  offset="0.6104" style="stop-color:#3C74D4"/>
				<stop  offset="0.7558" style="stop-color:#3B52BF"/>
				<stop  offset="0.8981" style="stop-color:#3928A5"/>
				<stop  offset="1" style="stop-color:#380590"/>
			</linearGradient>
			<path style="fill:url(#SVGID_2_);" d="M419.61,250.63c-0.02-7.03-4.99-9.86-11.11-6.33L163.28,385.88
				c-6.12,3.53-11.06,12.08-11.04,19.11l0.5,175.35c0.02,7.03,4.99,9.86,11.11,6.33L409.07,445.1c6.12-3.53,11.06-12.09,11.04-19.11
				L419.61,250.63z"/>
			<g>
				<g>
					<path style="fill:#FFFFFF;" d="M321.01,322.32l2.85-1.64l-3.33,21.41l-2.71,1.56l0.25-1.59c-1.04,1.63-2.35,2.99-3.94,3.91
						c-3.02,1.74-5.38,0.83-5.4-3.06c-0.01-4.77,2.93-9.89,6.83-12.15c1.89-1.09,3.35-1.19,4.16-0.21L321.01,322.32z M314.85,342.75
						c2.42-1.4,4.18-4.57,4.17-7.66c-0.01-2.19-1.17-2.85-3.23-1.66c-2.42,1.4-4.18,4.57-4.17,7.66
						C311.62,343.28,312.79,343.94,314.85,342.75"/>
				</g>
				<g>
					<path style="fill:#FFFFFF;" d="M305.54,415.37c4.59-2.65,7.2-0.59,7.21,5.68c0.02,6.72-3.27,12.23-8.07,14.99
						c-1.6,0.93-3.16,1.46-4.27,1.3l0.94-2.73c0.9,0.15,2.05-0.26,3.31-0.99c3.48-2.01,5.67-5.77,5.66-10.71l0-0.7
						c-1,2.3-2.81,4.21-4.95,5.44c-3.4,1.96-5.86,1.05-5.87-2.59C299.49,421.29,302.14,417.34,305.54,415.37z M305.79,425.15
						c2.34-1.35,3.96-3.95,3.95-6.1c-0.01-2.02-1.43-3-4.1-1.45c-2.23,1.29-3.77,3.68-3.76,6.01
						C301.88,425.92,303.38,426.54,305.79,425.15"/>
				</g>
				<g>
					<polygon style="fill:#FFFFFF;" points="320.31,407.08 320.37,426.76 317.94,428.16 317.89,410.92 314.04,413.15 314.03,410.71 
											"/>
				</g>
				<g>
					<polygon style="fill:#FFFFFF;" points="384.35,370.11 384.41,389.79 381.97,391.2 381.92,373.96 378.07,376.18 378.06,373.74 
											"/>
				</g>
				<g>
					<path style="fill:#FFFFFF;" d="M399.12,361.58l0.01,1.92l-4.45,8.92c3.41-1.59,5.17-0.38,5.17,2.66
						c0.01,3.31-2.11,7.24-6.46,9.76c-2.45,1.42-4.86,1.9-6.3,1.25l1.11-2.87c1.15,0.57,3.07,0.33,5.18-0.89
						c2.56-1.48,4.02-3.66,4.02-5.81c-0.01-2.08-1.3-2.69-4.24-0.99l-1.37,0.79l-0.01-1.95l4.29-8.58l-8.26,4.77l-0.01-2.44
						L399.12,361.58z"/>
				</g>
				<g>
					<path style="fill:#F4A500;" d="M377.55,415.33c4.22,1.18,6.95,5.38,6.94,11.87c0,0.1,0,0.21,0,0.31
						c-0.11,6.69-3.05,14.14-7.46,20.14c-4.15-1.16-6.87-5.26-6.92-11.59c0-0.2,0-0.41,0-0.62
						C370.21,428.77,373.14,421.33,377.55,415.33z"/>
				</g>
				<g>
					<path style="fill:#ECC26F;" d="M188.54,389.65l0.02,6.07l-21.41,12.36c0.29-3.58,2.81-7.7,5.83-9.45L188.54,389.65z"/>
				</g>
				<g>
					<path style="fill:#FFFFFF;" d="M278.96,347.45c2.74-1.58,4.96-1.79,6.08-0.45l-2.13,3.31c-0.88-0.88-2.25-0.85-4.14,0.24
						c-4.09,2.36-6.63,7.37-6.61,11.67c0.01,3.04,1.74,4.06,5,2.18c1.79-1.04,3.33-2.61,4.54-4.74l1.74,1.13
						c-1.54,2.95-3.84,5.21-6.49,6.73c-4.86,2.81-7.78,1.27-7.79-3.36C269.13,357.96,273.03,350.88,278.96,347.45z"/>
				</g>
				<g>
					<path style="fill:#FFFFFF;" d="M294.62,342.87l-0.51,3.43c-0.25,0.09-0.44,0.18-0.71,0.34c-2.23,1.29-3.72,3.45-4.22,6.65
						l-1.19,7.6l-2.85,1.64l2.38-15.4l2.71-1.56l-0.31,1.99C291.04,345.44,292.56,344.05,294.62,342.87z"/>
				</g>
				<g>
					<path style="fill:#FFFFFF;" d="M307.24,341.74c0,0.7-0.06,1.43-0.18,2.1l-9.67,5.58c0.05,2.21,1.17,2.76,3.53,1.4
						c1.38-0.8,2.66-2.06,3.5-3.47l1.2,1.6c-1.29,2.05-3.12,3.74-5,4.82c-3.68,2.12-6.01,1.03-6.03-2.69
						c-0.01-4.75,2.92-9.88,7.01-12.25C304.99,336.88,307.23,337.9,307.24,341.74z M297.63,347.1l6.98-4.03
						c0.03-2.17-1.24-2.64-3.14-1.54C299.54,342.65,298.14,344.74,297.63,347.1"/>
				</g>
				<g>
					<path style="fill:#FFFFFF;" d="M328.97,316.95c1.02-0.59,1.72-0.21,1.72,0.76c0,1.28-0.78,2.62-1.94,3.29
						c-1.02,0.59-1.7,0.15-1.7-0.84C327.04,318.97,327.81,317.63,328.97,316.95z"/>
				</g>
				<g>
					<polygon style="fill:#FFFFFF;" points="324.29,339.93 326.68,324.52 329.54,322.87 327.16,338.27 					"/>
				</g>
				<g>
					<path style="fill:#FFFFFF;" d="M337.03,315.45l-0.56,3.53l3.29-1.9l-0.45,2.88l-3.29,1.9l-1.13,7.24
						c-0.02,0.23-0.05,0.44-0.05,0.64c0,0.96,0.44,1.32,1.45,0.74c0.55-0.32,1.12-0.84,1.59-1.48l0.51,2.13
						c-0.86,1.13-1.93,1.95-2.94,2.53c-2.08,1.2-3.5,0.62-3.5-1.73c0-0.34,0.01-0.73,0.09-1.16l1.15-7.29l-2,1.15l0.46-2.89
						l1.98-1.14l0.54-3.52L337.03,315.45z"/>
				</g>
				<g>
					<path style="fill:#FFFFFF;" d="M357.27,302.24c2.74-1.58,4.96-1.79,6.08-0.45l-2.15,3.32c-0.87-0.89-2.24-0.86-4.13,0.23
						c-4.09,2.36-6.64,7.38-6.63,11.68c0.01,3.04,1.76,4.05,5.02,2.17c1.79-1.04,3.33-2.61,4.54-4.74l1.74,1.13
						c-1.54,2.95-3.84,5.21-6.49,6.73c-4.86,2.81-7.78,1.27-7.79-3.36C347.44,312.75,351.32,305.68,357.27,302.24z"/>
				</g>
				<g>
					<path style="fill:#FFFFFF;" d="M374.44,296.95l2.85-1.64l-2.38,15.4l-2.7,1.56l0.25-1.59c-1.04,1.65-2.37,3-3.97,3.92
						c-2.99,1.73-5.37,0.82-5.38-3.07c-0.01-4.77,2.95-9.9,6.85-12.15c1.89-1.09,3.34-1.18,4.16-0.16L374.44,296.95z M369.2,311.37
						c2.41-1.39,4.19-4.57,4.18-7.67c-0.01-2.19-1.17-2.85-3.23-1.66c-2.42,1.4-4.19,4.57-4.18,7.66
						C365.97,311.9,367.14,312.56,369.2,311.37"/>
				</g>
				<g>
					<path style="fill:#FFFFFF;" d="M400.39,276.5l2.85-1.64l-3.33,21.41l-2.71,1.56l0.25-1.59c-1.04,1.63-2.35,2.99-3.94,3.91
						c-3.02,1.74-5.37,0.82-5.38-3.07c-0.01-4.77,2.92-9.88,6.82-12.14c1.89-1.09,3.35-1.19,4.16-0.21L400.39,276.5z M394.22,296.93
						c2.42-1.4,4.18-4.57,4.17-7.66c-0.01-2.19-1.17-2.85-3.23-1.66c-2.42,1.4-4.18,4.57-4.17,7.66
						C391,297.45,392.16,298.12,394.22,296.93"/>
				</g>
				<g style="enable-background:new    ;">
					<g>
						<path style="fill:#FFFFFF;" d="M269.96,443.9c3.41-1.97,5.89-1.06,5.9,2.57c0.01,3.79-2.66,7.76-6.05,9.72
							c-4.61,2.66-7.21,0.62-7.23-5.65c-0.02-6.72,3.29-12.25,8.09-15.02c1.6-0.93,3.15-1.44,4.25-1.3l-0.92,2.74
							c-0.88-0.18-2.05,0.24-3.27,0.95c-3.48,2.01-5.7,5.81-5.69,10.72c0,0.23,0,0.45,0.03,0.69
							C266.03,447.07,267.83,445.13,269.96,443.9z M269.7,453.97c2.22-1.28,3.79-3.69,3.78-6.02c-0.01-2.31-1.52-2.92-3.93-1.53
							c-2.33,1.34-3.94,3.94-3.94,6.11C265.62,454.55,267.06,455.49,269.7,453.97"/>
					</g>
					<g>
						<path style="fill:#ECC26F;" d="M189.92,426.56l-0.02-6.07l21.31-12.3c-0.29,3.58-2.81,7.7-5.83,9.45L189.92,426.56z"/>
					</g>
					<g>
						<path style="fill:#ECC26F;" d="M195.11,407.87c0.77-1.47,0.95-2.69,1-3.4l15.1-8.72l0.03,11.06l-21.34,12.32l-0.02-5.93
							C192.3,411.68,194.06,409.87,195.11,407.87z"/>
					</g>
					<g>
						<path style="fill:#ECC26F;" d="M167.22,433.58l21.52-12.42l0.02,6.07l-15.66,9.04C170.06,438.02,167.53,436.81,167.22,433.58z
							"/>
					</g>
					<g>
						<polygon style="fill:#ECC26F;" points="188.56,397.08 188.57,402.88 167.14,415.26 167.12,409.46 						"/>
					</g>
					<g>
						<path style="fill:#EBEDED;" d="M189.71,388.97l0.02,6.07l21.41-12.36l0.03,1.34l-21.44,12.38l0.02,5.78
							c2.17-1.23,5.51-2.2,6.24,1.01l15.21-8.78l0,1.34l-15.1,8.72c-0.05,0.71-0.23,1.93-1,3.4c-1.05,2-2.81,3.81-5.23,5.34
							l0.02,5.93l21.34-12.32l0,1.36l-21.34,12.32l0.02,6.07l-1.16,0.67l-0.02-6.07l-21.52,12.42l-0.03-0.67l0-0.67l21.55-12.44
							l-0.02-5.91l-21.55,12.44l0-1.36l22.13-12.78c2.36-1.38,4.01-2.97,4.92-4.7c0.85-1.63,0.72-2.84,0.72-2.86
							c-0.39-3.6-4.13-1.71-5.35-1.01c-0.21,0.12-0.34,0.2-0.37,0.22l-0.63,0.42l-21.44,12.32l0-1.34l21.44-12.38l-0.02-5.8
							l-21.44,12.38l0-0.67l0-0.69l21.44-12.38l-0.02-6.07L189.71,388.97z"/>
					</g>
					<g>
						<path style="fill:#FFFFFF;" d="M288.14,435.03c1.97-0.27,3.04,0.76,3.05,3c0.01,3.58-2.63,7.33-6.81,9.74
							c-4.15,2.4-6.78,1.69-6.79-1.89c-0.01-2.24,1.07-4.53,2.99-6.49c-1.56,0.07-2.4-0.91-2.4-2.87c-0.01-3.29,2.45-6.77,6.15-8.91
							c3.73-2.15,6.23-1.54,6.24,1.75C290.57,431.33,289.71,433.29,288.14,435.03z M284.38,445.5c2.72-1.57,4.38-3.92,4.38-6.13
							c-0.01-2.17-1.68-2.56-4.4-0.99c-2.72,1.57-4.32,3.85-4.32,6.02C280.05,446.6,281.66,447.07,284.38,445.5 M284.33,429.9
							c-2.3,1.33-3.74,3.37-3.73,5.34c0.01,1.95,1.41,2.35,3.75,1c2.37-1.37,3.82-3.42,3.81-5.37
							C288.16,428.9,286.64,428.57,284.33,429.9"/>
					</g>
					<g>
						<path style="fill:#ECC26F;" d="M189.74,396.4l21.44-12.38l0.03,10.39l-15.21,8.78c-0.73-3.21-4.07-2.25-6.24-1.01
							L189.74,396.4z"/>
					</g>
					<g>
						<path style="fill:#ECC26F;" d="M205.27,379.99c3.02-1.75,5.56-0.53,5.87,2.69l-21.41,12.36l-0.02-6.07L205.27,379.99z"/>
					</g>
					<g>
						<polygon style="fill:#ECC26F;" points="188.71,413.9 188.73,419.8 167.19,432.24 167.17,426.33 						"/>
					</g>
					<g>
						<path style="fill:#ECC26F;" d="M194.21,407.5c-0.91,1.74-2.56,3.32-4.92,4.7l-22.13,12.78l-0.02-8.39l21.44-12.38l0.63-0.36
							c0.03-0.02,0.17-0.1,0.37-0.22c1.22-0.7,4.96-2.59,5.35,1.01C194.93,404.66,195.06,405.87,194.21,407.5z"/>
					</g>
				</g>
				<g>
					<polygon style="fill:#FFFFFF;" points="177.41,489.58 177.47,509.26 175.05,510.66 175,493.42 171.13,495.66 171.12,493.22 
											"/>
				</g>
				<g>
					<path style="fill:#FFFFFF;" d="M186.58,484.06c3.59-2.07,5.89-1.28,5.9,2.1c0.01,1.92-0.48,3.91-2.8,7.81l-5.22,8.82l8.79-5.08
						l0.01,2.44l-12.31,7.11l-0.01-1.9l6.95-11.76c1.82-3.1,2.15-4.51,2.14-5.74c-0.01-2.04-1.25-2.55-3.66-1.16
						c-1.82,1.05-3.32,2.58-4.37,4.66l-1.67-0.7C181.65,488.01,183.92,485.59,186.58,484.06z"/>
				</g>
				<g>
					<path style="fill:#FFFFFF;" d="M206.24,472.94l0.01,1.92l-4.46,8.93c3.43-1.6,5.17-0.38,5.17,2.66
						c0.01,3.31-2.11,7.24-6.46,9.76c-2.45,1.42-4.85,1.89-6.3,1.25l1.13-2.88c1.15,0.57,3.06,0.33,5.16-0.88
						c2.56-1.48,4.04-3.67,4.03-5.82c-0.01-2.08-1.31-2.68-4.26-0.98l-1.37,0.79l-0.01-1.95l4.29-8.58l-8.24,4.76l-0.01-2.44
						L206.24,472.94z"/>
				</g>
				<g>
					<polygon style="fill:#FFFFFF;" points="220.35,464.8 211.99,482.08 218.58,478.27 218.56,473.99 220.86,472.66 220.87,476.95 
						224.13,475.07 224.13,477.49 220.88,479.37 220.89,484.19 218.52,485.57 218.5,480.74 208.99,486.23 208.98,484.26 
						217.71,466.32 					"/>
				</g>
				<g>
					<path style="fill:#FFFFFF;" d="M243.2,451.6l0.01,2.44l-7.61,4.39l-0.44,5.67l1.9-1.1c5.11-2.95,7.13-1.66,7.14,1.83
						c0.01,3.4-2.09,7.34-6.48,9.88c-2.42,1.4-4.82,1.88-6.28,1.24l1.11-2.87c1.15,0.57,3.07,0.33,5.15-0.87
						c2.6-1.5,4.05-3.72,4.05-5.85c-0.01-2.22-1.22-2.9-5.2-0.6l-3.88,2.24l0.87-10.82L243.2,451.6z"/>
				</g>
				<g>
					<polygon style="fill:#FFFFFF;" points="257.34,443.44 248.99,460.71 255.57,456.92 255.55,452.63 257.86,451.3 257.88,455.58 
						261.13,453.7 261.14,456.12 257.88,458 257.9,462.83 255.52,464.2 255.51,459.37 245.98,464.88 245.97,462.91 254.7,444.96 
											"/>
				</g>
				<g>
					<path style="fill:#FFFFFF;" d="M331.07,400.64c3.98-2.3,6.98-0.35,7,6.06c0.02,6.4-2.96,11.79-6.94,14.09
						c-4.03,2.32-7.02,0.38-7.04-6.02C324.06,408.36,327.04,402.96,331.07,400.64z M331.12,418.28c2.66-1.53,4.51-5.14,4.49-10.16
						c-0.01-5.04-1.88-6.5-4.54-4.97c-2.7,1.56-4.55,5.16-4.54,10.2C326.55,418.38,328.41,419.84,331.12,418.28"/>
				</g>
				<g>
					<polygon style="fill:#FFFFFF;" points="345.61,392.47 345.67,412.15 343.25,413.55 343.2,396.31 339.33,398.55 339.32,396.11 
											"/>
				</g>
				<g>
					<polygon style="fill:#FFFFFF;" points="361.25,383.45 361.3,403.13 358.88,404.53 358.83,387.29 354.96,389.52 354.96,387.08 
											"/>
				</g>
				<g>
					<path style="fill:#FF006F;" d="M367.32,417.33c0.13-0.08,0.27-0.15,0.41-0.23c3.7-2.04,7.08-2.55,9.82-1.78
						c-4.41,6-7.33,13.45-7.44,20.12c0,0.21,0,0.41,0,0.62c0.05,6.33,2.77,10.43,6.92,11.59c-2.73,3.71-6.02,6.87-9.58,8.92
						c-0.12,0.07-0.25,0.14-0.37,0.21c-9.44,5.21-16.93,0.54-16.76-10.42C350.49,435.57,358.06,422.68,367.32,417.33z"/>
				</g>
				<g>
					<path style="fill:#E4DA00;" d="M387.12,406.39c0.12-0.07,0.25-0.14,0.37-0.21c9.44-5.2,16.95-0.55,16.76,10.42
						c-0.17,10.81-7.76,23.71-17.02,29.06c-0.13,0.07-0.25,0.14-0.38,0.21c-3.68,2.03-7.07,2.54-9.82,1.78
						c4.41-6,7.35-13.46,7.46-20.14c0-0.1,0-0.21,0-0.31c0.02-6.49-2.72-10.69-6.94-11.87
						C380.29,411.59,383.58,408.43,387.12,406.39z"/>
				</g>
				<g>
					<path style="fill:#FFFFFF;" d="M370.42,377.92c3.59-2.07,5.89-1.28,5.9,2.1c0.01,1.92-0.48,3.91-2.8,7.81l-5.22,8.82l8.79-5.08
						l0.01,2.44l-12.31,7.11l-0.01-1.9l6.95-11.76c1.82-3.09,2.15-4.51,2.14-5.74c-0.01-2.04-1.25-2.55-3.66-1.16
						c-1.82,1.05-3.32,2.58-4.37,4.66l-1.67-0.7C365.48,381.87,367.76,379.45,370.42,377.92z"/>
				</g>
				<g>
					<path style="fill:#FFFFFF;" d="M388.12,288.88l-0.51,3.43c-0.25,0.09-0.44,0.18-0.71,0.34c-2.23,1.29-3.72,3.45-4.22,6.65
						l-1.19,7.6l-2.85,1.64l2.38-15.4l2.72-1.57l-0.33,2C384.54,291.46,386.08,290.07,388.12,288.88z"/>
				</g>
			</g>
		</g>
		<g style="opacity:0.5;">
			<g>
				<linearGradient id="SVGID_3_" gradientUnits="userSpaceOnUse" x1="90.4063" y1="334.7587" x2="412.7921" y2="161.5759">
					<stop  offset="0.0245" style="stop-color:#FFFFFF"/>
					<stop  offset="0.9807" style="stop-color:#FFFFFF;stop-opacity:0"/>
				</linearGradient>
				<polygon style="fill:url(#SVGID_3_);" points="175.32,256.52 203.75,272.72 175.5,321.67 175.46,307.18 191.16,279.99 
					175.36,270.98 				"/>
			</g>
			<g>
				<linearGradient id="SVGID_4_" gradientUnits="userSpaceOnUse" x1="90.8492" y1="335.5838" x2="413.2358" y2="162.4006">
					<stop  offset="0.0245" style="stop-color:#FFFFFF"/>
					<stop  offset="0.9807" style="stop-color:#FFFFFF;stop-opacity:0"/>
				</linearGradient>
				<polygon style="fill:url(#SVGID_4_);" points="148.85,271.8 177.3,287.99 149.04,336.95 148.99,322.47 164.7,295.27 
					148.89,286.27 				"/>
			</g>
			<g>
				<linearGradient id="SVGID_5_" gradientUnits="userSpaceOnUse" x1="91.2923" y1="336.4082" x2="413.679" y2="163.2249">
					<stop  offset="0.0245" style="stop-color:#FFFFFF"/>
					<stop  offset="0.9807" style="stop-color:#FFFFFF;stop-opacity:0"/>
				</linearGradient>
				<polygon style="fill:url(#SVGID_5_);" points="122.4,287.07 150.83,303.28 122.58,352.22 122.54,337.74 138.24,310.54 
					122.44,301.54 				"/>
			</g>
			<g>
				<linearGradient id="SVGID_6_" gradientUnits="userSpaceOnUse" x1="89.9629" y1="333.9346" x2="412.3497" y2="160.7513">
					<stop  offset="0.0245" style="stop-color:#FFFFFF"/>
					<stop  offset="0.9807" style="stop-color:#FFFFFF;stop-opacity:0"/>
				</linearGradient>
				<polygon style="fill:url(#SVGID_6_);" points="201.77,241.25 230.22,257.44 201.96,306.4 201.92,291.91 217.62,264.72 
					201.81,255.71 				"/>
			</g>
			<g>
				<linearGradient id="SVGID_7_" gradientUnits="userSpaceOnUse" x1="89.5202" y1="333.1094" x2="411.906" y2="159.9266">
					<stop  offset="0.0245" style="stop-color:#FFFFFF"/>
					<stop  offset="0.9807" style="stop-color:#FFFFFF;stop-opacity:0"/>
				</linearGradient>
				<polygon style="fill:url(#SVGID_7_);" points="228.24,225.97 256.69,242.16 228.43,291.12 228.38,276.63 244.09,249.44 
					228.28,240.43 				"/>
			</g>
			<g>
				<linearGradient id="SVGID_8_" gradientUnits="userSpaceOnUse" x1="89.077" y1="332.2846" x2="411.4628" y2="159.1018">
					<stop  offset="0.0245" style="stop-color:#FFFFFF"/>
					<stop  offset="0.9807" style="stop-color:#FFFFFF;stop-opacity:0"/>
				</linearGradient>
				<polygon style="fill:url(#SVGID_8_);" points="254.71,210.68 283.14,226.89 254.89,275.83 254.85,261.35 270.54,234.16 
					254.75,225.15 				"/>
			</g>
			<g>
				<linearGradient id="SVGID_9_" gradientUnits="userSpaceOnUse" x1="88.6336" y1="331.4605" x2="411.0203" y2="158.2773">
					<stop  offset="0.0245" style="stop-color:#FFFFFF"/>
					<stop  offset="0.9807" style="stop-color:#FFFFFF;stop-opacity:0"/>
				</linearGradient>
				<polygon style="fill:url(#SVGID_9_);" points="281.16,195.41 309.61,211.6 281.35,260.56 281.31,246.08 297.01,218.88 
					281.2,209.88 				"/>
			</g>
			<g>
				<linearGradient id="SVGID_10_" gradientUnits="userSpaceOnUse" x1="87.7475" y1="329.8114" x2="410.1341" y2="156.6281">
					<stop  offset="0.0245" style="stop-color:#FFFFFF"/>
					<stop  offset="0.9807" style="stop-color:#FFFFFF;stop-opacity:0"/>
				</linearGradient>
				<polygon style="fill:url(#SVGID_10_);" points="334.08,164.86 362.53,181.05 334.27,230.01 334.23,215.52 349.93,188.33 
					334.12,179.32 				"/>
			</g>
			<g>
				<linearGradient id="SVGID_11_" gradientUnits="userSpaceOnUse" x1="88.1914" y1="330.6351" x2="410.5765" y2="157.4527">
					<stop  offset="0.0245" style="stop-color:#FFFFFF"/>
					<stop  offset="0.9807" style="stop-color:#FFFFFF;stop-opacity:0"/>
				</linearGradient>
				<polygon style="fill:url(#SVGID_11_);" points="307.63,180.13 336.06,196.33 307.82,245.28 307.77,230.8 323.48,203.6 
					307.67,194.59 				"/>
			</g>
			<g>
				<linearGradient id="SVGID_12_" gradientUnits="userSpaceOnUse" x1="87.3047" y1="328.9862" x2="409.6908" y2="155.8033">
					<stop  offset="0.0245" style="stop-color:#FFFFFF"/>
					<stop  offset="0.9807" style="stop-color:#FFFFFF;stop-opacity:0"/>
				</linearGradient>
				<polygon style="fill:url(#SVGID_12_);" points="360.55,149.58 388.98,165.78 360.74,214.73 360.7,200.24 376.4,173.05 
					360.59,164.04 				"/>
			</g>
		</g>
	</g>
	<g>
		<g>
			<path style="fill:#00208E;" d="M234.26,750.95l69.31-40.01l-0.31-108.56L286.6,612l-0.02-6.12
				c-0.03-11.85-8.45-16.65-18.77-10.69c-10.31,5.95-18.67,20.44-18.64,32.29l0.02,6.12l-15.84,9.03v108.6
				C234.29,750.86,234.27,750.9,234.26,750.95z M253.54,624.96c-0.03-9.08,6.39-20.19,14.29-24.75c7.9-4.56,14.36-0.88,14.38,8.2
				l0.02,6.12l-28.67,16.55L253.54,624.96z"/>
			<g>
				<g>
					<polygon style="fill:#4F72FB;" points="233.28,642.68 233.58,751.14 253.78,763.14 253.48,654.68 					"/>
				</g>
			</g>
			<g>
				<g>
					<polygon style="fill:#00114A;" points="303.34,602.49 303.03,711.09 323.58,722.52 323.89,613.92 					"/>
				</g>
			</g>
			<path style="fill:#395DE4;" d="M253.47,654.59l0.31,108.56l70.45-40.67l-0.31-108.56l-16.66,9.62l-0.02-6.12
				c-0.03-11.85-8.45-16.65-18.77-10.69c-10.31,5.95-18.67,20.44-18.64,32.29l0.02,6.12L253.47,654.59z M274.2,636.49
				c-0.03-9.08,6.39-20.19,14.29-24.75c7.9-4.56,14.36-0.88,14.38,8.2l0.02,6.12l-28.67,16.55L274.2,636.49z"/>
		</g>
		<g>
			<path style="fill:#7B0031;" d="M292.75,787.37l69.31-40.01l-0.31-108.56l-16.66,9.62l-0.02-6.12
				c-0.03-11.85-8.45-16.65-18.77-10.69c-10.31,5.95-18.67,20.44-18.64,32.29l0.02,6.12l-15.84,9.03v108.6
				C292.78,787.28,292.76,787.32,292.75,787.37z M312.03,661.38c-0.03-9.08,6.39-20.19,14.29-24.75s14.36-0.88,14.38,8.2l0.02,6.12
				l-28.67,16.55L312.03,661.38z"/>
			<g>
				<g>
					<polygon style="fill:#FF3698;" points="291.77,679.1 292.07,787.56 312.27,799.56 311.98,691.1 					"/>
				</g>
			</g>
			<g>
				<g>
					<polygon style="fill:#56002A;" points="361.83,638.91 361.53,747.51 382.07,758.94 382.38,650.34 					"/>
				</g>
			</g>
			<path style="fill:#FF006F;" d="M311.96,691.01l0.31,108.56l70.45-40.67l-0.31-108.56l-16.66,9.62l-0.02-6.12
				c-0.03-11.85-8.45-16.65-18.77-10.69c-10.31,5.95-18.67,20.44-18.64,32.29l0.02,6.12L311.96,691.01z M332.69,672.91
				c-0.03-9.08,6.39-20.19,14.29-24.75c7.9-4.56,14.36-0.88,14.38,8.2l0.02,6.12l-28.67,16.55L332.69,672.91z"/>
		</g>
	</g>
	<g>
		<g style="opacity:0.5;">
			<path style="fill:#FFFFFF;" d="M838.29,132.85c3.48,2.01,6.28,6.87,6.27,10.86c-0.01,3.99-2.84,5.6-6.31,3.59
				c-3.47-2-6.28-6.87-6.27-10.86C831.99,132.45,834.82,130.85,838.29,132.85z"/>
		</g>
		<g style="opacity:0.25;">
			<path style="fill:#FFFFFF;" d="M802.27,193.13c3.48,2.01,6.28,6.87,6.27,10.86c-0.01,3.99-2.84,5.6-6.31,3.59
				c-3.47-2-6.28-6.87-6.27-10.86C795.97,192.73,798.8,191.12,802.27,193.13z"/>
		</g>
		<g style="opacity:0.1;">
			<path style="fill:#FFFFFF;" d="M771.11,108.14c3.47,2.01,6.28,6.87,6.27,10.86c-0.01,3.99-2.84,5.6-6.31,3.59
				c-3.47-2.01-6.28-6.87-6.27-10.86C764.81,107.75,767.64,106.14,771.11,108.14z"/>
		</g>
		<g style="opacity:0.1;">
			<path style="fill:#FFFFFF;" d="M814.41,47.53c3.47,2.01,6.28,6.87,6.27,10.86c-0.01,3.99-2.84,5.6-6.31,3.59
				c-3.47-2.01-6.28-6.87-6.27-10.86C808.11,47.13,810.93,45.52,814.41,47.53z"/>
		</g>
		<g style="opacity:0.1;">
			<path style="fill:#FFFFFF;" d="M821.96,316.63c3.47,2.01,6.28,6.87,6.27,10.86c-0.01,3.99-2.84,5.6-6.31,3.59
				c-3.47-2.01-6.28-6.87-6.27-10.86C815.66,316.23,818.48,314.62,821.96,316.63z"/>
		</g>
		<g style="opacity:0.5;">
			<path style="fill:#FFFFFF;" d="M720.34,131.57c3.47,2.01,6.28,6.87,6.27,10.86c-0.01,3.99-2.84,5.6-6.31,3.59
				c-3.47-2.01-6.28-6.87-6.27-10.86C714.05,131.18,716.87,129.57,720.34,131.57z"/>
		</g>
		<g style="opacity:0.5;">
			<path style="fill:#FFFFFF;" d="M852.67,250.58c3.47,2.01,6.28,6.87,6.27,10.86c-0.01,3.99-2.84,5.6-6.31,3.59
				c-3.47-2.01-6.28-6.87-6.27-10.86C846.37,250.18,849.2,248.57,852.67,250.58z"/>
		</g>
		<g style="opacity:0.5;">
			<path style="fill:#FFFFFF;" d="M646.41,80.28c3.47,2.01,6.28,6.87,6.27,10.86c-0.01,3.99-2.84,5.6-6.31,3.59
				c-3.47-2.01-6.28-6.87-6.27-10.86C640.11,79.89,642.94,78.28,646.41,80.28z"/>
		</g>
	</g>
	<g>
		<linearGradient id="SVGID_13_" gradientUnits="userSpaceOnUse" x1="629.7562" y1="427.4382" x2="803.7227" y2="427.4382">
			<stop  offset="0.0245" style="stop-color:#FFFFFF"/>
			<stop  offset="0.9807" style="stop-color:#FFFFFF;stop-opacity:0"/>
		</linearGradient>
		<path style="opacity:0.5;fill:url(#SVGID_13_);" d="M788.04,252.91L788.04,252.91c0-0.44-0.01-0.99-0.02-1.35
			c-0.01-0.48-0.04-0.96-0.07-1.44c-0.03-0.48-0.07-0.97-0.12-1.45c-0.05-0.49-0.1-0.97-0.16-1.46c-0.06-0.5-0.13-1-0.21-1.5
			c-0.08-0.5-0.17-1.01-0.26-1.51c-0.1-0.52-0.2-1.04-0.32-1.56c-0.11-0.52-0.24-1.04-0.36-1.56c-0.13-0.53-0.27-1.06-0.42-1.58
			c-0.15-0.53-0.3-1.05-0.46-1.58c-0.16-0.52-0.32-1.03-0.49-1.54c-0.17-0.51-0.35-1.02-0.53-1.52c-0.18-0.49-0.36-0.98-0.55-1.46
			c-0.19-0.48-0.38-0.97-0.58-1.45c-0.2-0.48-0.4-0.95-0.61-1.42c-0.21-0.48-0.43-0.96-0.66-1.44c-0.25-0.53-0.5-1.05-0.76-1.58
			c-0.3-0.6-0.61-1.2-0.93-1.79c-0.47-0.88-0.96-1.76-1.47-2.62c-0.71-1.2-1.44-2.38-2.21-3.53c-0.61-0.91-1.24-1.81-1.89-2.69
			c-0.43-0.59-0.88-1.17-1.33-1.74c-0.38-0.48-0.76-0.96-1.15-1.42c-0.38-0.46-0.76-0.91-1.15-1.35c-0.38-0.44-0.77-0.87-1.16-1.29
			c-0.4-0.43-0.81-0.86-1.22-1.28c-0.42-0.42-0.84-0.84-1.26-1.25c-0.43-0.42-0.87-0.82-1.31-1.22c-0.44-0.39-0.88-0.78-1.33-1.16
			c-0.44-0.37-0.88-0.73-1.33-1.09c-0.43-0.34-0.87-0.68-1.31-1c-0.43-0.32-0.86-0.62-1.3-0.92c-0.42-0.29-0.84-0.57-1.27-0.84
			c-0.42-0.27-0.84-0.52-1.26-0.77c-0.1-0.06-0.2-0.11-0.29-0.17l-167.38-96.64c-0.32-0.18-0.63-0.36-0.95-0.53
			c-0.41-0.22-0.82-0.43-1.22-0.63c-0.27-0.13-0.53-0.25-0.79-0.37c-0.06-0.03-0.12-0.06-0.18-0.09c-0.08-0.04-0.16-0.08-0.23-0.11
			c-0.4-0.18-0.8-0.35-1.2-0.51c-0.4-0.16-0.81-0.31-1.21-0.45c-0.07-0.02-0.14-0.04-0.2-0.07c-0.06-0.02-0.12-0.04-0.18-0.06
			c-0.27-0.09-0.54-0.18-0.81-0.27c-0.41-0.13-0.83-0.24-1.23-0.34c-0.2-0.05-0.39-0.09-0.59-0.13c-0.09-0.02-0.17-0.04-0.26-0.06
			c-0.13-0.03-0.26-0.06-0.38-0.08c-0.44-0.09-0.88-0.16-1.31-0.22l-0.06,0.03h0l0.06-0.03c-0.27-0.04-0.53-0.06-0.79-0.08
			c-0.09-0.01-0.18-0.02-0.28-0.03c-0.09-0.01-0.18-0.02-0.27-0.03c-0.47-0.03-0.94-0.05-1.4-0.05c-0.2,0-0.4,0.02-0.6,0.03
			c-0.16,0.01-0.31,0.01-0.46,0.02c-0.16,0.01-0.32,0.01-0.48,0.02c-0.59,0.05-1.16,0.14-1.72,0.25c-0.01,0-0.02,0.01-0.03,0.01
			c-0.12,0.03-0.24,0.07-0.36,0.1c-0.58,0.13-1.15,0.27-1.69,0.47c-0.85,0.3-1.65,0.67-2.42,1.12l-9.75,5.67
			c0.02-0.01,0.04-0.01,0.05-0.02c-5.39,3.1-8.74,9.74-8.76,19.18l-1.35,474.53c-0.05,18.96,13.27,42.04,29.77,51.57l167.38,96.64
			c8.82,5.09,16.74,5.24,22.23,1.4c-0.32,0.23-0.63,0.48-0.97,0.68l9.75-5.67c0.61-0.35,1.17-0.76,1.73-1.2
			c0.17-0.13,0.32-0.28,0.49-0.42c0.39-0.34,0.76-0.7,1.12-1.08c0.16-0.17,0.31-0.33,0.46-0.51c0.41-0.48,0.79-0.99,1.16-1.53
			c0.06-0.09,0.13-0.17,0.19-0.26c0.01-0.02,0.03-0.04,0.04-0.06c0.41-0.64,0.78-1.32,1.13-2.04c0.01-0.02,0.02-0.05,0.03-0.08
			c0.04-0.07,0.06-0.16,0.1-0.23c0.21-0.45,0.41-0.91,0.59-1.39c0.09-0.24,0.16-0.49,0.25-0.74c0.05-0.15,0.1-0.29,0.15-0.44
			c0.04-0.13,0.09-0.26,0.13-0.39c0.15-0.49,0.28-1,0.4-1.53c0.04-0.18,0.07-0.38,0.11-0.56c0.02-0.12,0.05-0.24,0.07-0.36
			c0.03-0.18,0.08-0.36,0.11-0.54c0.08-0.47,0.15-0.94,0.21-1.43c0.03-0.27,0.06-0.54,0.08-0.82c0.01-0.1,0.02-0.19,0.03-0.29
			c0.01-0.11,0.03-0.22,0.03-0.34c0.04-0.46,0.07-0.93,0.09-1.41c0.02-0.36,0.03-0.95,0.03-1.44l0,0l0,0c0-0.03,0-0.06,0-0.09
			l1.34-474.19l0,0c0-0.03,0-0.09,0-0.13L788.04,252.91z M754.25,746.84c0.03,0.01,0.07,0.01,0.1,0.02l0,0
			C754.31,746.85,754.28,746.85,754.25,746.84z M760.47,738.98L760.47,738.98L760.47,738.98L760.47,738.98z M760.64,746.99
			C760.64,746.99,760.65,746.99,760.64,746.99L760.64,746.99C760.65,746.99,760.65,746.99,760.64,746.99z M764.89,733.48
			c-0.05,0.12-0.1,0.24-0.14,0.37C764.79,733.71,764.85,733.59,764.89,733.48C764.89,733.47,764.89,733.47,764.89,733.48z"/>
		<g>
			<g>
				<g style="enable-background:new    ;">
					<g style="enable-background:new    ;">
						<defs>
							<path id="SVGID_14_" style="enable-background:new    ;" d="M740.68,763.92l-9.75,5.67c5.36-3.12,8.69-9.74,8.71-19.16
								l9.75-5.67C749.36,754.18,746.04,760.8,740.68,763.92z"/>
						</defs>
						<clipPath id="SVGID_15_">
							<use xlink:href="#SVGID_14_"  style="overflow:visible;"/>
						</clipPath>
						<path style="clip-path:url(#SVGID_15_);fill:#292929;" d="M739.64,750.43l9.75-5.67c0,0.03,0,0.06,0,0.09l-9.75,5.67
							C739.64,750.48,739.64,750.46,739.64,750.43"/>
					</g>
					<path style="fill:#1B1B1B;" d="M522.58,125.62l9.75-5.67c0.77-0.44,1.57-0.82,2.42-1.12L525,124.5
						C524.16,124.8,523.35,125.17,522.58,125.62"/>
					<g>
						<linearGradient id="SVGID_16_" gradientUnits="userSpaceOnUse" x1="626.7602" y1="248.9302" x2="626.7602" y2="772.9202">
							<stop  offset="0" style="stop-color:#3EB2FA"/>
							<stop  offset="0.1616" style="stop-color:#3FAEFA"/>
							<stop  offset="0.3142" style="stop-color:#42A2FA"/>
							<stop  offset="0.4633" style="stop-color:#478FFA"/>
							<stop  offset="0.6103" style="stop-color:#4F74FB"/>
							<stop  offset="0.7557" style="stop-color:#5852FB"/>
							<stop  offset="0.898" style="stop-color:#6428FC"/>
							<stop  offset="0.9572" style="stop-color:#6914FC"/>
						</linearGradient>
						<path style="fill:url(#SVGID_16_);" d="M711.18,236.87c10.47,6.04,18.93,20.7,18.9,32.73l-1.35,474.53
							c-0.03,12.03-8.55,16.87-19.02,10.83l-167.38-96.63c-10.47-6.04-18.92-20.68-18.89-32.71l1.35-474.53
							c0.03-12.03,8.54-16.89,19.01-10.85l20.84,12.03c2.75,1.59,4.98,5.46,4.97,8.62l-0.01,5.13c-0.02,7.17,5.02,15.9,11.26,19.5
							L674,239.28c6.24,3.6,11.31,0.71,11.33-6.46l0.01-5.13c0.01-3.16,2.25-4.45,5.01-2.85L711.18,236.87z"/>
					</g>
					<g>
						<path d="M711.2,230.6c13.46,7.77,24.38,26.68,24.33,42.15l-1.35,474.53c-0.04,15.47-11.03,21.73-24.49,13.96L542.31,664.6
							c-13.46-7.77-24.38-26.68-24.33-42.15l1.35-474.53c0.04-15.47,11.03-21.73,24.49-13.96L711.2,230.6z M728.73,744.13
							l1.35-474.53c0.03-12.03-8.43-26.69-18.9-32.73l-20.83-12.02c-2.76-1.59-5-0.31-5.01,2.85l-0.01,5.13
							c-0.02,7.17-5.09,10.06-11.33,6.46l-93.14-53.77c-6.24-3.6-11.28-12.33-11.26-19.5l0.01-5.13c0.01-3.16-2.23-7.03-4.97-8.62
							l-20.84-12.03c-10.47-6.04-18.98-1.18-19.01,10.85l-1.35,474.53c-0.03,12.03,8.42,26.67,18.89,32.71l167.38,96.63
							C720.18,761,728.7,756.16,728.73,744.13"/>
					</g>
					<g>
						<path style="fill:#1C1C1C;" d="M711.21,224.33c16.5,9.52,29.82,32.61,29.77,51.57l-1.35,474.53
							c-0.05,18.96-13.47,26.6-29.97,17.08L542.3,670.87c-16.5-9.52-29.83-32.61-29.77-51.57l1.35-474.53
							c0.05-18.96,13.47-26.6,29.97-17.08L711.21,224.33z M734.18,747.28l1.35-474.53c0.04-15.47-10.87-34.38-24.33-42.15
							l-167.38-96.63c-13.46-7.77-24.45-1.51-24.49,13.96l-1.34,474.53c-0.04,15.47,10.87,34.38,24.33,42.15l167.38,96.63
							C723.15,769.01,734.14,762.74,734.18,747.28"/>
					</g>
					<path style="fill:#292929;" d="M750.74,270.23L750.74,270.23c0-0.44-0.01-0.99-0.02-1.35c-0.01-0.48-0.04-0.96-0.07-1.44
						c-0.03-0.48-0.07-0.97-0.12-1.45c-0.05-0.49-0.1-0.97-0.16-1.46c-0.06-0.5-0.13-1-0.21-1.5c-0.08-0.5-0.17-1.01-0.26-1.51
						c-0.1-0.52-0.2-1.04-0.32-1.56c-0.11-0.52-0.24-1.04-0.36-1.56c-0.13-0.53-0.27-1.06-0.42-1.58c-0.15-0.53-0.3-1.05-0.46-1.58
						c-0.16-0.52-0.32-1.03-0.49-1.54c-0.17-0.51-0.35-1.02-0.53-1.52c-0.18-0.49-0.36-0.98-0.55-1.46
						c-0.19-0.48-0.38-0.97-0.58-1.45c-0.2-0.48-0.4-0.95-0.61-1.42c-0.21-0.48-0.43-0.96-0.66-1.44c-0.25-0.53-0.5-1.05-0.76-1.58
						c-0.3-0.6-0.61-1.2-0.93-1.79c-0.47-0.88-0.96-1.76-1.47-2.62c-0.7-1.2-1.44-2.38-2.21-3.53c-0.61-0.91-1.24-1.81-1.89-2.69
						c-0.43-0.59-0.88-1.17-1.33-1.74c-0.38-0.48-0.76-0.96-1.15-1.42c-0.38-0.46-0.76-0.91-1.15-1.35
						c-0.38-0.44-0.77-0.87-1.16-1.29c-0.4-0.43-0.81-0.86-1.22-1.28c-0.42-0.42-0.84-0.84-1.26-1.25
						c-0.43-0.42-0.87-0.82-1.31-1.22c-0.44-0.39-0.88-0.78-1.33-1.16c-0.44-0.37-0.88-0.73-1.33-1.09c-0.43-0.34-0.87-0.68-1.31-1
						c-0.43-0.32-0.86-0.62-1.3-0.92c-0.42-0.29-0.84-0.57-1.27-0.84c-0.42-0.27-0.84-0.52-1.26-0.77c-0.1-0.06-0.2-0.11-0.29-0.17
						l-167.38-96.63c-0.32-0.18-0.63-0.36-0.95-0.53c-0.41-0.22-0.82-0.43-1.22-0.63c-0.27-0.13-0.53-0.25-0.79-0.37
						c-0.06-0.03-0.12-0.06-0.18-0.09c-0.08-0.04-0.16-0.08-0.23-0.11c-0.4-0.18-0.8-0.35-1.2-0.51c-0.4-0.16-0.81-0.31-1.21-0.45
						c-0.07-0.02-0.14-0.04-0.2-0.07c-0.06-0.02-0.12-0.04-0.18-0.06c-0.27-0.09-0.54-0.18-0.81-0.27
						c-0.41-0.13-0.83-0.24-1.23-0.34c-0.2-0.05-0.39-0.09-0.59-0.13c-0.09-0.02-0.17-0.04-0.26-0.06
						c-0.13-0.03-0.26-0.06-0.38-0.08c-0.44-0.09-0.88-0.16-1.31-0.22l-0.06,0.03h0l0.06-0.03c-0.27-0.04-0.53-0.06-0.79-0.08
						c-0.09-0.01-0.18-0.02-0.28-0.03c-0.09-0.01-0.18-0.02-0.27-0.03c-0.47-0.03-0.94-0.05-1.4-0.05c-0.2,0-0.4,0.02-0.6,0.03
						c-0.16,0.01-0.31,0.01-0.46,0.02c-0.16,0.01-0.32,0.01-0.48,0.02c-0.59,0.05-1.16,0.14-1.72,0.25c-0.01,0-0.02,0.01-0.03,0.01
						c-0.12,0.03-0.24,0.07-0.36,0.1c-0.58,0.13-1.15,0.27-1.69,0.47l-0.08,0.04c-0.81,0.29-1.6,0.64-2.34,1.07l-9.75,5.67
						c1.26-0.73,2.64-1.25,4.11-1.58c0.13-0.03,0.24-0.08,0.37-0.1c0.72-0.15,1.47-0.23,2.24-0.28c0.15-0.01,0.31-0.02,0.46-0.02
						c0.74-0.03,1.5-0.02,2.27,0.04c0.09,0.01,0.18,0.02,0.27,0.03c0.81,0.08,1.64,0.2,2.48,0.38c0.08,0.02,0.17,0.04,0.25,0.06
						c0.86,0.19,1.74,0.44,2.64,0.74c0.06,0.02,0.12,0.04,0.17,0.06c0.93,0.32,1.88,0.7,2.84,1.14c0.06,0.03,0.12,0.06,0.19,0.09
						c0.98,0.45,1.96,0.96,2.96,1.54l167.38,96.63c0.1,0.06,0.2,0.11,0.29,0.17c0.42,0.25,0.85,0.51,1.26,0.77
						c0.43,0.27,0.85,0.55,1.27,0.84c0.44,0.3,0.87,0.61,1.3,0.92c0.44,0.32,0.88,0.66,1.31,1c0.45,0.35,0.89,0.71,1.33,1.09
						c0.45,0.38,0.89,0.76,1.33,1.16c0.44,0.4,0.88,0.8,1.31,1.22c0.42,0.41,0.84,0.82,1.26,1.25c0.41,0.42,0.82,0.85,1.22,1.28
						c0.39,0.42,0.78,0.85,1.16,1.29l0,0c0.39,0.44,0.77,0.89,1.15,1.35c0.39,0.47,0.77,0.94,1.15,1.42
						c0.45,0.57,0.89,1.15,1.33,1.74c0.65,0.88,1.28,1.78,1.89,2.69c0.77,1.15,1.51,2.33,2.21,3.53c0.51,0.86,1,1.74,1.47,2.62
						c0.32,0.59,0.63,1.19,0.93,1.79c0.26,0.52,0.52,1.05,0.76,1.58c0.22,0.48,0.44,0.96,0.66,1.44c0.21,0.47,0.41,0.95,0.61,1.42
						c0.2,0.48,0.39,0.97,0.58,1.45c0.19,0.49,0.37,0.97,0.55,1.46c0.18,0.51,0.36,1.01,0.53,1.52c0.17,0.51,0.34,1.03,0.49,1.54
						c0.16,0.53,0.31,1.05,0.46,1.58c0.15,0.53,0.29,1.06,0.42,1.58c0.13,0.52,0.25,1.04,0.36,1.56c0.11,0.52,0.22,1.04,0.32,1.56
						c0.09,0.5,0.18,1.01,0.26,1.51c0.08,0.5,0.15,1,0.21,1.5c0.06,0.49,0.12,0.98,0.16,1.46c0.05,0.49,0.08,0.97,0.12,1.45
						c0.03,0.48,0.05,0.97,0.07,1.44c0.01,0.37,0.02,1.01,0.02,1.48l-1.34,473.73l0,0c0,0.49-0.01,1.73-0.03,2.2
						c-0.02,0.48-0.05,0.95-0.09,1.41c-0.04,0.49-0.09,0.97-0.15,1.44c-0.06,0.49-0.13,0.96-0.21,1.43
						c-0.09,0.5-0.18,0.99-0.29,1.46c-0.12,0.52-0.25,1.03-0.4,1.53c-0.16,0.54-0.33,1.06-0.52,1.57c-0.22,0.59-0.46,1.15-0.72,1.7
						c-0.34,0.72-0.72,1.4-1.13,2.04c-1.38,2.17-3.13,3.87-5.17,5.05l9.75-5.67c2.04-1.19,3.79-2.89,5.17-5.05
						c0.41-0.64,0.78-1.32,1.13-2.04c0.26-0.54,0.5-1.11,0.72-1.7c0.19-0.51,0.36-1.03,0.52-1.57c0.15-0.49,0.28-1,0.4-1.53
						c0.11-0.48,0.21-0.96,0.29-1.46c0.08-0.47,0.15-0.94,0.21-1.43c0.06-0.47,0.11-0.95,0.15-1.44c0.04-0.46,0.07-0.93,0.09-1.41
						c0.02-0.38,0.03-1.03,0.03-1.53l0,0l1.34-474.19l0,0c0-0.03,0-0.09,0-0.13L750.74,270.23z"/>
				</g>
			</g>
			<g>
				<linearGradient id="SVGID_17_" gradientUnits="userSpaceOnUse" x1="682.0136" y1="296.908" x2="580.5215" y2="490.3121">
					<stop  offset="0.3069" style="stop-color:#3EB2FA"/>
					<stop  offset="1" style="stop-color:#3EB2FA;stop-opacity:0"/>
				</linearGradient>
				<polygon style="fill:url(#SVGID_17_);" points="546.03,218.82 545.65,480.64 711.47,577.98 711.85,316.16 				"/>
				<g>
					<g>
						<g>
							<polygon style="fill:#FFFFFF;" points="546.11,213.15 448.67,298.29 469.91,310.73 567.31,225.81 							"/>
							<path style="fill:#D7D7D7;" d="M448.67,298.29v10.13c0,0-0.74,11.02,10.22,15.13c12.18,4.57,11.03-12.82,11.03-12.82
								L448.67,298.29z"/>
							<path style="fill:#D7D7D7;" d="M567.31,225.74l-21.2-12.65c0,0,0-6.41,0-6.48l21.2,12.65
								C567.31,219.27,567.28,225.77,567.31,225.74z"/>
						</g>
						<g>
							<polygon style="fill:#FF006F;" points="567.36,225.8 469.91,310.94 491.15,323.37 588.56,238.45 							"/>
							<path style="fill:#AA0046;" d="M469.91,310.94v10.13c0,0-0.74,11.02,10.21,15.13c12.18,4.57,11.03-12.82,11.03-12.82
								L469.91,310.94z"/>
							<path style="fill:#AA0046;" d="M588.56,238.39l-21.2-12.65c0,0,0-6.41,0-6.48l21.2,12.65
								C588.56,231.91,588.52,238.42,588.56,238.39z"/>
						</g>
					</g>
					<g>
						<g>
							<polygon style="fill:#FFFFFF;" points="588.51,238.39 491.07,323.53 512.31,335.96 609.71,251.04 							"/>
							<path style="fill:#D7D7D7;" d="M491.07,323.53v10.13c0,0-0.74,11.02,10.21,15.13c12.18,4.57,11.03-12.82,11.03-12.82
								L491.07,323.53z"/>
							<path style="fill:#D7D7D7;" d="M609.71,250.97l-21.2-12.65c0,0,0-6.41,0-6.48l21.2,12.65
								C609.71,244.5,609.68,251.01,609.71,250.97z"/>
						</g>
						<g>
							<polygon style="fill:#FF006F;" points="609.69,251 512.24,336.14 533.48,348.58 630.89,263.66 							"/>
							<path style="fill:#AA0046;" d="M512.24,336.14v10.13c0,0-0.74,11.02,10.21,15.13c12.18,4.57,11.03-12.82,11.03-12.82
								L512.24,336.14z"/>
							<path style="fill:#AA0046;" d="M630.89,263.59l-21.2-12.65c0,0,0-6.41,0-6.48l21.2,12.65
								C630.89,257.12,630.85,263.62,630.89,263.59z"/>
						</g>
					</g>
					<g>
						<g>
							<polygon style="fill:#FFFFFF;" points="630.85,263.67 533.4,348.81 554.65,361.25 652.05,276.32 							"/>
							<path style="fill:#D7D7D7;" d="M533.4,348.81v10.13c0,0-0.74,11.02,10.21,15.13c12.18,4.57,11.03-12.82,11.03-12.82
								L533.4,348.81z"/>
							<path style="fill:#D7D7D7;" d="M652.05,276.26l-21.2-12.65c0,0,0-6.41,0-6.48l21.2,12.65
								C652.05,269.78,652.02,276.29,652.05,276.26z"/>
						</g>
						<g>
							<polygon style="fill:#FF006F;" points="652.08,276.34 554.63,361.48 575.87,373.92 673.28,289 							"/>
							<path style="fill:#AA0046;" d="M554.63,361.48v10.13c0,0-0.74,11.02,10.21,15.13c12.18,4.57,11.03-12.82,11.03-12.82
								L554.63,361.48z"/>
							<path style="fill:#AA0046;" d="M673.28,288.93l-21.2-12.65c0,0,0-6.41,0-6.48l21.2,12.65
								C673.28,282.46,673.25,288.96,673.28,288.93z"/>
						</g>
					</g>
					<g>
						<g>
							<polygon style="fill:#FFFFFF;" points="673.3,288.9 575.85,374.03 597.09,386.47 694.5,301.55 							"/>
							<path style="fill:#D7D7D7;" d="M575.85,374.03v10.13c0,0-0.74,11.02,10.21,15.13c12.18,4.57,11.03-12.82,11.03-12.82
								L575.85,374.03z"/>
							<path style="fill:#D7D7D7;" d="M694.5,301.48l-21.2-12.65c0,0,0-6.41,0-6.48l21.2,12.65
								C694.5,295.01,694.47,301.52,694.5,301.48z"/>
						</g>
						<g>
							<polygon style="fill:#FF006F;" points="694.42,301.46 596.97,386.6 618.21,399.03 715.62,314.11 							"/>
							<path style="fill:#AA0046;" d="M596.97,386.6v10.13c0,0-0.74,11.02,10.21,15.13c12.18,4.57,11.03-12.82,11.03-12.82
								L596.97,386.6z"/>
							<path style="fill:#AA0046;" d="M715.62,314.04l-21.2-12.65c0,0,0-6.41,0-6.48l21.2,12.65
								C715.62,307.57,715.59,314.08,715.62,314.04z"/>
						</g>
					</g>
				</g>
			</g>
		</g>
	</g>
	<g>
		<g style="opacity:0.43;">
			<path style="fill:#FFFFFF;" d="M814.62,513.51c6,3.47,10.85,11.87,10.83,18.77l-0.09,32.57c-0.02,6.9-4.9,9.68-10.91,6.21
				L629.22,464.11c-6-3.47-10.85-11.87-10.83-18.77l0.09-32.57c0.02-6.9,4.9-9.68,10.91-6.21L814.62,513.51z"/>
		</g>
		<g>
			<g>
				<path style="fill:#FFFFFF;" d="M805.07,529.49c6,3.47,10.85,11.87,10.83,18.77l-0.09,32.57c-0.02,6.9-4.9,9.68-10.91,6.21
					L619.68,480.1c-6-3.47-10.85-11.87-10.83-18.77l0.09-32.57c0.02-6.9,4.9-9.68,10.91-6.21L805.07,529.49z"/>
			</g>
			<g>
				<g>
					<path style="fill:#6914FC;" d="M772.75,541.63l-0.01,1.99c1.19,0.82,2.36,1.85,3.3,3l-1.17,2.52
						c-1.12-1.29-2.17-2.23-3.18-2.81c-1.12-0.65-1.48-0.48-1.48-0.03c0,1.58,6.29,3.91,6.28,8.72c-0.01,2.03-1.27,3.07-3.79,2.1
						l-0.01,2.09l-2.3-1.33l0.01-1.99c-1.63-1.06-3.21-2.46-4.18-3.73l1.25-2.49c1.07,1.34,2.5,2.64,3.76,3.36
						c1.09,0.63,1.48,0.6,1.48,0.15c0-1.64-6.29-3.97-6.28-8.83c0.01-2.11,1.34-3.12,4.01-2.01l0.01-2.03L772.75,541.63z"/>
				</g>
				<g>
					<polygon style="fill:#6914FC;" points="782.45,549.46 782.42,562.56 778.57,560.34 778.6,550.59 776.64,549.46 776.65,546.11 
											"/>
				</g>
				<g>
					<path style="fill:#6914FC;" d="M789,552.95c3.01,1.74,5.15,5.48,5.14,9.82c-0.01,4.34-2.16,5.6-5.17,3.87
						c-3.01-1.74-5.15-5.48-5.14-9.82C783.84,552.48,785.99,551.21,789,552.95z M788.98,563.1c0.75,0.43,1.31-0.03,1.32-2.55
						c0.01-2.52-0.55-3.63-1.3-4.06c-0.75-0.43-1.3,0.04-1.3,2.56C787.68,561.57,788.23,562.66,788.98,563.1"/>
				</g>
				<g>
					<path style="fill:#6914FC;" d="M800.27,559.45c3.01,1.74,5.15,5.48,5.14,9.82c-0.01,4.34-2.16,5.6-5.17,3.87
						c-3.01-1.74-5.15-5.48-5.14-9.82C795.1,558.98,797.25,557.72,800.27,559.45z M800.24,569.6c0.75,0.43,1.31-0.03,1.32-2.55
						c0.01-2.52-0.55-3.63-1.3-4.06c-0.75-0.43-1.29,0.04-1.3,2.56C798.95,568.07,799.49,569.17,800.24,569.6"/>
				</g>
				<g>
					<polygon style="fill:#C4A2FA;" points="742.43,526.02 742.39,539.61 622.36,470.31 622.4,456.72 					"/>
				</g>
				<g>
					<polygon style="fill:#6914FC;" points="669.07,463.01 622.46,436.1 622.42,449.67 669.07,476.6 					"/>
				</g>
			</g>
		</g>
	</g>
	<g>
		<g>
			<linearGradient id="SVGID_18_" gradientUnits="userSpaceOnUse" x1="788.8324" y1="415.4841" x2="788.8324" y2="486.0246">
				<stop  offset="0" style="stop-color:#3EB2FA"/>
				<stop  offset="0.1616" style="stop-color:#3FAEFA"/>
				<stop  offset="0.3142" style="stop-color:#42A2FA"/>
				<stop  offset="0.4633" style="stop-color:#478FFA"/>
				<stop  offset="0.6103" style="stop-color:#4F74FB"/>
				<stop  offset="0.7557" style="stop-color:#5852FB"/>
				<stop  offset="0.898" style="stop-color:#6428FC"/>
				<stop  offset="0.9572" style="stop-color:#6914FC"/>
			</linearGradient>
			<path style="fill:none;stroke:url(#SVGID_18_);stroke-width:2;stroke-miterlimit:10;" d="M788.92,420.14
				c14.72,8.5,26.6,29.09,26.56,46c-0.05,16.91-12.01,23.73-26.73,15.23c-14.72-8.5-26.6-29.09-26.56-46
				C762.24,418.46,774.2,411.64,788.92,420.14z"/>
		</g>
		<g>
			<path style="fill:#FFFFFF;" d="M832.44,418.39c1.33,0.77,2.52,3.22,1.56,4.28l-43.07,47.67c-0.38,0.42-0.96,0.39-1.55,0.05
				c-0.67-0.39-1.34-1.18-1.67-2.17l-15.29-45.08c-0.68-2,0.47-2.84,1.71-2.12c0.45,0.26,0.9,0.71,1.3,1.39l10.68,18.51
				c0.37,0.64,0.85,1.12,1.32,1.4c0.48,0.28,0.96,0.34,1.32,0.13l42.39-24.16C831.54,418.06,832,418.13,832.44,418.39z"/>
		</g>
	</g>
	<g>
		<g>
			<g style="opacity:0.43;">
				<path style="fill:#FFFFFF;" d="M814.62,606.76c6,3.47,10.85,11.87,10.83,18.77l-0.09,32.57c-0.02,6.9-4.9,9.68-10.91,6.21
					L629.22,557.36c-6-3.47-10.85-11.87-10.83-18.77l0.09-32.57c0.02-6.9,4.9-9.68,10.91-6.21L814.62,606.76z"/>
			</g>
			<g>
				<g>
					<path style="fill:#FFFFFF;" d="M805.07,622.75c6,3.47,10.85,11.87,10.83,18.77l-0.09,32.57c-0.02,6.9-4.9,9.68-10.91,6.21
						L619.68,573.35c-6-3.47-10.85-11.87-10.83-18.77l0.09-32.57c0.02-6.9,4.9-9.68,10.91-6.21L805.07,622.75z"/>
				</g>
				<g>
					<g>
						<path style="fill:#6914FC;" d="M772.75,634.88l-0.01,1.99c1.19,0.82,2.36,1.85,3.3,3l-1.17,2.52
							c-1.12-1.29-2.17-2.23-3.18-2.81c-1.12-0.65-1.48-0.48-1.48-0.03c0,1.58,6.29,3.91,6.28,8.72c-0.01,2.03-1.27,3.07-3.79,2.1
							l-0.01,2.09l-2.3-1.33l0.01-1.99c-1.63-1.06-3.21-2.46-4.18-3.73l1.25-2.49c1.07,1.34,2.5,2.64,3.76,3.36
							c1.09,0.63,1.48,0.6,1.48,0.15c0-1.64-6.29-3.97-6.28-8.83c0.01-2.11,1.34-3.12,4.01-2.01l0.01-2.03L772.75,634.88z"/>
					</g>
					<g>
						<polygon style="fill:#6914FC;" points="782.45,642.72 782.42,655.81 778.57,653.59 778.6,643.84 776.64,642.71 776.65,639.37 
													"/>
					</g>
					<g>
						<path style="fill:#6914FC;" d="M789,646.2c3.01,1.74,5.15,5.48,5.14,9.82c-0.01,4.34-2.16,5.6-5.17,3.87
							c-3.01-1.74-5.15-5.48-5.14-9.82C783.84,645.73,785.99,644.47,789,646.2z M788.98,656.35c0.75,0.43,1.31-0.03,1.32-2.55
							c0.01-2.52-0.55-3.63-1.3-4.06c-0.75-0.43-1.3,0.04-1.3,2.56C787.68,654.82,788.23,655.92,788.98,656.35"/>
					</g>
					<g>
						<path style="fill:#6914FC;" d="M800.27,652.71c3.01,1.74,5.15,5.48,5.14,9.82c-0.01,4.34-2.16,5.6-5.17,3.87
							c-3.01-1.74-5.15-5.48-5.14-9.82C795.1,652.23,797.25,650.97,800.27,652.71z M800.24,662.85c0.75,0.43,1.31-0.03,1.32-2.55
							c0.01-2.52-0.55-3.63-1.3-4.06c-0.75-0.43-1.29,0.04-1.3,2.56C798.95,661.32,799.49,662.42,800.24,662.85"/>
					</g>
					<g>
						<polygon style="fill:#C4A2FA;" points="742.43,619.27 742.39,632.86 622.36,563.56 622.4,549.98 						"/>
					</g>
					<g>
						<polygon style="fill:#6914FC;" points="669.07,556.27 622.46,529.35 622.42,542.92 669.07,569.85 						"/>
					</g>
				</g>
			</g>
		</g>
		<g>
			<g style="opacity:0.5;">
				<linearGradient id="SVGID_19_" gradientUnits="userSpaceOnUse" x1="789.765" y1="746.0084" x2="856.347" y2="812.5903">
					<stop  offset="0.0245" style="stop-color:#FFFFFF"/>
					<stop  offset="0.9807" style="stop-color:#FFFFFF;stop-opacity:0"/>
				</linearGradient>
				<path style="fill:url(#SVGID_19_);" d="M830.1,738.01c2.07,2.58,3.34,5.85,3.33,8.6l-0.2,69.75c-0.01,4.24-3.02,5.96-6.73,3.81
					l-34.9-20.15c-3.69-2.13-6.68-7.31-6.67-11.55l0.2-69.75c0.01-2.75,1.29-4.54,3.37-4.73l17.47-1.51
					c1.04-0.08,2.2,0.24,3.35,0.91s2.31,1.68,3.33,2.95L830.1,738.01z"/>
			</g>
			<g>
				<g>
					<g>
						<path style="fill:#E4DA00;" d="M808.78,737.35c2.07,2.58,3.34,5.85,3.33,8.6l-0.2,69.75c-0.01,4.24-3.02,5.96-6.73,3.81
							l-34.9-20.15c-3.69-2.13-6.68-7.31-6.67-11.55l0.2-69.75c0.01-2.75,1.29-4.54,3.37-4.73l17.47-1.51
							c1.04-0.08,2.2,0.24,3.35,0.91s2.31,1.68,3.33,2.95L808.78,737.35z M787.98,727.73c1.81,1.04,3.29,0.2,3.29-1.88
							c0.01-2.08-1.46-4.62-3.27-5.67c-1.83-1.06-3.29-0.2-3.29,1.88C784.7,724.14,786.15,726.67,787.98,727.73"/>
					</g>
					<g>
						<path style="fill:#FFFFFF;" d="M790.35,670.57c0.67,1.86,1.94,3.76,3.29,5.76c2.41,3.58,5.13,7.64,4.05,11.72
							c-0.61,2.38-2.55,2.9-4.26,3.38c-2.4,0.66-3.86,1.22-3.35,4.5c0.37,2.29,1.89,4.48,3.5,6.8c2.11,3.01,4.5,6.44,4.24,10.31
							c-0.22,3.32-2.41,3.96-4.35,4.51c-1.89,0.55-3.52,1.03-3.55,3.61l-1.97-1.16c0.05-3.69,2.32-4.36,4.33-4.93
							c1.83-0.54,3.41-0.99,3.56-3.31c0.19-2.69-1.5-5.09-3.44-7.89c-1.75-2.52-3.75-5.39-4.26-8.61c-0.77-5,1.83-5.7,4.12-6.34
							c1.58-0.43,3.08-0.84,3.53-2.52c0.7-2.72-0.82-5.19-3.39-9c-1.45-2.15-2.96-4.38-3.8-6.79L790.35,670.57z"/>
					</g>
				</g>
				<g>
					<g>
						<polygon style="fill:#FFFFFF;" points="793.82,756.83 796.1,758.15 781.93,773.75 779.64,772.43 						"/>
					</g>
					<g>
						<path style="fill:#FFFFFF;" d="M794.41,768.18c2.86,1.65,4.8,5.4,4.79,9.26c-0.01,3.84-1.97,5.34-4.82,3.69
							s-4.78-5.38-4.77-9.23C789.62,768.04,791.55,766.53,794.41,768.18z M794.38,779.2c1.77,1.02,2.91-0.06,2.91-2.85
							c0.01-2.82-1.12-5.21-2.89-6.23c-1.79-1.04-2.91,0.03-2.91,2.88C791.48,775.85,792.58,778.17,794.38,779.2"/>
					</g>
					<g>
						<path style="fill:#FFFFFF;" d="M786.14,758.69c-0.01,3.89-1.94,5.35-4.8,3.7c-2.88-1.66-4.82-5.38-4.81-9.25
							c0.01-3.87,1.97-5.36,4.85-3.7C784.23,751.09,786.15,754.8,786.14,758.69z M778.45,754.26c-0.01,2.8,1.12,5.18,2.89,6.21
							c1.79,1.04,2.88-0.02,2.89-2.87c0.01-2.85-1.07-5.18-2.87-6.22C779.6,750.35,778.46,751.43,778.45,754.26"/>
					</g>
				</g>
			</g>
		</g>
	</g>
	<g>
		<g style="opacity:0.53;">
			<path style="fill:#3EB2FA;" d="M682.8,635.77c10.4,6.01,18.81,20.56,18.78,32.51c-0.03,11.97-8.5,16.78-18.9,10.77L561.34,609
				c-10.4-6.01-18.81-20.56-18.78-32.52c0.03-11.95,8.5-16.76,18.9-10.76L682.8,635.77z"/>
		</g>
		<g>
			<g>
				<path style="fill:#FF006F;" d="M677.91,649.53c10.4,6.01,18.81,20.56,18.78,32.51c-0.03,11.97-8.5,16.78-18.9,10.77
					l-121.33-70.05c-10.4-6.01-18.81-20.56-18.78-32.52c0.03-11.95,8.5-16.76,18.9-10.76L677.91,649.53z"/>
			</g>
			<g>
				<g>
					<path style="fill:#FFFFFF;" d="M562.22,597.39c1.58,0.91,3.2,2.34,4.32,3.86l-0.65,1.39c-1.15-1.53-2.48-2.69-3.67-3.37
						c-2.28-1.32-3.25-0.78-3.26,0.57c-0.01,3.75,8.11,6.09,8.09,11.74c-0.01,2.35-1.66,3.43-5.2,1.38
						c-2.04-1.18-4.05-3.12-5.13-4.9l0.72-1.31c1,1.62,2.7,3.34,4.42,4.33c2.31,1.34,3.32,0.88,3.32-0.45
						c0.01-3.77-8.11-6.07-8.09-11.8C557.09,596.46,558.7,595.35,562.22,597.39z"/>
				</g>
				<g>
					<polygon style="fill:#FFFFFF;" points="581.42,608.65 581.38,624.05 579.46,622.94 579.47,616.08 571.77,611.63 571.75,618.49 
						569.84,617.39 569.89,601.99 571.79,603.09 571.77,609.72 579.48,614.17 579.5,607.54 					"/>
				</g>
				<g>
					<path style="fill:#FFFFFF;" d="M591.49,614.29c4.08,2.36,7.1,7.45,7.09,11.98c-0.01,4.53-3.05,6.13-7.13,3.77
						c-4.12-2.38-7.14-7.49-7.12-12C584.34,613.52,587.38,611.91,591.49,614.29z M591.45,628.09c2.98,1.72,5.2,0.47,5.2-2.93
						c0.01-3.4-2.19-7.2-5.17-8.92c-3.01-1.74-5.23-0.49-5.24,2.91C586.24,622.55,588.44,626.35,591.45,628.09"/>
				</g>
				<g>
					<path style="fill:#FFFFFF;" d="M606.77,623.28c3.47,2,5.57,5.25,5.56,8.6c-0.01,3.34-2.12,4.14-5.59,2.13l-3.32-1.92
						l-0.01,4.67l-1.92-1.11l0.04-15.4L606.77,623.28z M606.67,632.06c2.45,1.41,3.75,0.91,3.75-1.28c0.01-2.21-1.28-4.21-3.73-5.62
						l-3.25-1.88l-0.02,6.9L606.67,632.06"/>
				</g>
				<g>
					<polygon style="fill:#FFFFFF;" points="632.39,638.07 632.34,653.48 629.79,652 623.15,638.81 623.12,648.15 620.04,646.38 
						620.09,630.97 622.66,632.46 629.3,645.65 629.32,636.31 					"/>
				</g>
				<g>
					<path style="fill:#FFFFFF;" d="M642.07,643.39c4.22,2.44,7.32,7.61,7.31,12.21c-0.01,4.59-3.14,6.16-7.35,3.72
						c-4.24-2.45-7.32-7.61-7.31-12.19C634.72,642.56,637.83,640.94,642.07,643.39z M642.03,656.29c2.4,1.38,4.21,0.43,4.22-2.5
						c0.01-2.93-1.79-5.97-4.19-7.35c-2.4-1.38-4.19-0.42-4.2,2.51C637.85,651.88,639.63,654.9,642.03,656.29"/>
				</g>
				<g>
					<polygon style="fill:#FFFFFF;" points="671.56,660.69 667.13,673.56 663.8,671.64 660.88,659.5 657.81,668.18 654.49,666.26 
						650.13,648.32 653.34,650.17 656.34,662.75 659.54,653.75 662.41,655.41 665.44,668.08 668.6,658.98 					"/>
				</g>
			</g>
		</g>
	</g>
	<g>
		<g>
			<g>
				<g>
					<g style="enable-background:new    ;">
						<defs>
							<polygon id="SVGID_20_" style="enable-background:new    ;" points="274.9,780.35 361.28,730.15 613.25,876.93 
								526.87,927.13 							"/>
						</defs>
						<linearGradient id="SVGID_21_" gradientUnits="userSpaceOnUse" x1="371.414" y1="711.4073" x2="512.1079" y2="938.4055">
							<stop  offset="0" style="stop-color:#FFFFFF;stop-opacity:0"/>
							<stop  offset="0.4867" style="stop-color:#FFFFFF"/>
							<stop  offset="1" style="stop-color:#FFFFFF;stop-opacity:0"/>
						</linearGradient>
						<use xlink:href="#SVGID_20_"  style="overflow:visible;fill:url(#SVGID_21_);"/>
						<clipPath id="SVGID_22_">
							<use xlink:href="#SVGID_20_"  style="overflow:visible;"/>
						</clipPath>
					</g>
				</g>
			</g>
			<g>
				<g>
					<path style="fill:#010414;" d="M414.95,814.73l2.66,1.57c3.59,2.13,8.09,1.97,11.51-0.41l1.18-0.82c2.6-1.8,4.09-4.8,3.96-7.95
						l0,0l19.85-5.28c0,0,10.14-2.96,13.3,1.27c3.17,4.22-5.28,20.48-27.66,23.65c0,0-3.79,0.53-10.35,8.02
						c-4.43,5.07-16.68,3.17-17.32-4.01c-0.41-4.65-0.29-10.71-0.15-14.41C411.99,814.85,413.65,813.96,414.95,814.73z"/>
					<path style="fill:#FFB587;" d="M412.6,797.34l0.68,12.48c0.2,3.62,2.28,6.88,5.49,8.58l0.71,0.37
						c3.36,1.78,7.42,1.57,10.57-0.53l0,0c3.02-2.01,4.76-5.46,4.59-9.08l-0.73-15.81L412.6,797.34z"/>
				</g>
				<g>
					<path style="fill:#FFB587;" d="M443.69,822.65l0.68,12.48c0.2,3.62,2.28,6.88,5.49,8.58l0.71,0.37
						c3.36,1.78,7.42,1.57,10.57-0.53l0,0c3.02-2.01,4.76-5.46,4.59-9.08L465,818.66L443.69,822.65z"/>
					<path style="fill:#010414;" d="M445.75,838.2l2.79,1.66c3.77,2.24,8.5,2.07,12.11-0.43l1.24-0.86c2.73-1.89,4.3-5.05,4.16-8.36
						l0,0l20.87-5.55c0,0,10.66-3.11,13.99,1.33c3.33,4.44-5.55,21.54-29.09,24.87c0,0-3.98,0.56-10.88,8.44
						c-4.66,5.33-17.54,3.33-18.21-4.22c-0.43-4.89-0.3-11.26-0.16-15.15C442.64,838.33,444.38,837.39,445.75,838.2z"/>
				</g>
				<path style="fill:#001747;" d="M404.5,615.28l9.82,75.69c0.53,4.11,0.18,8.29-1.08,12.24c-2.21,6.94-4.3,14.86-4.14,21.37
					l1.95,75.32c0.04,1.42,0.93,2.66,2.26,3.16c4.66,1.73,15.6,6.49,23.34-2.48c0.67-0.77,1-1.78,1.05-2.8
					c0.45-11.11,3.47-78.62,11.71-115.22c8.99-39.97,13.32-68.27,5-87.26L404.5,615.28z"/>
				<path style="fill:#003B9A;" d="M436.03,626.82c-0.45,14.06-0.28,29.53,0.89,46.18c1.33,18.88,3.73,36.12,6.6,51.46
					c-1.14,3.34-2.26,7.45-2.99,12.21c-0.63,4.14-0.9,8.34-0.79,12.55l1.95,75.32c0.04,1.42,0.93,2.66,2.26,3.16
					c4.66,1.73,15.59,6.49,23.34-2.47c0.67-0.78,1.01-1.79,1.05-2.81c0.45-11.12,3.47-78.62,11.71-115.22
					c8.99-39.97,13.32-68.27,5-87.26L436.03,626.82z"/>
				<g>
					<path style="fill:#E3E5E9;" d="M488.72,611.77c0,0-3.79-46.09-1.2-55.32c2.09-7.46,2.42-15.3,0.95-22.9l-3.98-22.41
						c-5.33-19.32-20.95-27.17-20.95-27.17c-12.69-6.28-27.21-19.34-42.17-13.26c-25.14,10.22-16.31,48.61-7.08,66.8
						c4.73,9.31,7.36,21.44,4.09,31.36c-3.15,9.54-10.68,16.79-13.93,26.35c-2.88,8.45-3.57,17.65-1.91,26.43
						c1.46,7.68,8.22,11.24,14.84,14.21l41.95,17.25c2.39,0.98,5.07,1.41,7.82,1.36c4.76-0.09,8.97-3.04,10.67-7.49
						c1.55-4.06,2.96-9.07,3.68-14.95c2.16-0.49,0.47-0.11,2.63-0.59c1.27,2.11,2.8,5.42,3.89,10.13c0.9-2.21,1.43-4.6,1.48-7.05
						l0.12-5.02C489.75,623.58,489.45,617.65,488.72,611.77z"/>
				</g>
				<path style="fill:#FFB587;" d="M460.29,485.54c-5.56,0.48-16.37,0.14-21.2-8.81c0,0-0.64-33.2-0.64-33.22
					c-0.13-6.74,3.25-13.39,8.8-17.23c4.08-2.82,9.38-3.55,14.22-3.73c3.84-0.15,10.76-0.98,13.58,2.23c1.42,1.61,3,7.84,3,9.99
					c0,5.25,1.83,10.96,1.83,16.21c0,2.57-1.51,11.56-1.5,13.79c0.01,1.73-0.32,3.5-1.23,4.97c-0.74,1.2-1.88,2.13-3.16,2.68
					c-1.46,0.63-2.84,0.26-4.29,0.63c-6.58,1.68-5.97,8.71-5.97,8.71C463.73,483.73,462.24,485.37,460.29,485.54z"/>
				<g>
					<path style="fill:#B3B3B7;" d="M487.52,556.46L487.52,556.46c2.09-7.46,2.42-15.3,0.95-22.9l-3.98-22.41
						c-1.39-5.05-3.49-9.3-5.83-12.85c-3.91,2.65-7.65,5.54-11.08,8.78c3.98,5.07,6.57,11.92,6.81,21.94
						c0.95,39.66,4.89,107.59-13.62,124.6c1.93,0.59,4,0.88,6.13,0.87c4.91-0.04,9.26-3.11,10.99-7.7c1.52-4.02,2.9-8.97,3.6-14.76
						c2.16-0.49,0.46-0.1,2.62-0.59c1.27,2.11,2.8,5.43,3.89,10.14c0.9-2.21,1.43-4.6,1.48-7.05l0.12-5.02
						c0.14-5.93-0.16-11.85-0.89-17.74C488.72,611.77,484.93,565.68,487.52,556.46z"/>
				</g>
				<path style="fill:#FFB587;" d="M515.85,545.17l62.94-36.52c0.34-0.19,0.68-0.35,1.04-0.49l17.3-6.81
					c1.33-0.52,2.82,0.21,3.21,1.59l0,0c0.34,1.19-0.28,2.45-1.43,2.91l-9.51,3.8c-0.99,0.39-1.5,1.47-1.2,2.49
					c0.95,3.28,2.33,10.21-1.92,13.21c-2.91,2.05-5.82,3.84-7.96,5.1c-2.13,1.25-4.5,2.03-6.95,2.3l-5.72,0.65
					c-3.47,0.39-6.73,1.89-9.3,4.26L529,563.82L515.85,545.17z"/>
				<path style="fill:#E3E5E9;" d="M466.72,486.06c0,0,17.98,2.66,25.64,14.65c6.78,10.61,25.31,42.96,25.31,42.96l3.16-1.33
					c0,0,10.16,11.82,9.99,20.98l-16.49,8.66c0,0-6.66,5.66-18.65-13.32c-11.99-18.98-27.98-46.96-27.98-46.96
					S454.07,493.38,466.72,486.06z"/>
				<path style="fill:#FAFBFF;" d="M518.46,540.9c0,0,10.88,11.77,12.66,23.98l11.32-7.99c0,0-0.89-17.32-13.32-22.42L518.46,540.9z
					"/>
				<path style="fill:#FF006F;" d="M477.33,430.11c0,0-0.44,10.21-14.21,22.65c-6.68,6.04-9.79,18.1-3.43,37.47
					c1.7,5.17,3.09,10.24,4.07,15.21c4.89,24.75-13.75,48.58-38.97,47.93c-1.47-0.04-2.91-0.16-4.3-0.38
					c-2.18-0.35-4.67-1.23-7.33-2.48c-19.3-9.1-26.8-32.46-17.66-51.74c4.2-8.86,17.13-19.5,15.22-28.8
					c-5.66-27.64,6.04-67.04,36.63-64.94C481.32,407.35,477.33,430.11,477.33,430.11z"/>
			</g>
		</g>
		<g>
			<path style="fill:#FF3D99;" d="M465.9,416.2c-2.14-3.19-6.66-3.61-9.46-0.99c-2.06,1.93-4.71,4.37-8.09,7.46
				c-23.31,21.31,0.67,44.29,0.67,44.29c-2.33-10.99,8.99-22.65,8.99-22.65C471.69,431.44,469.66,421.8,465.9,416.2z"/>
		</g>
	</g>
</g>
</svg>
